<svg width="36" height="36" viewBox="0 0 36 36" fill="none" xmlns="http://www.w3.org/2000/svg">
<rect width="36" height="36" rx="18" fill="#F6E9DF"/>
<path d="M18 21.5556C17.5111 21.5556 17.0927 21.3816 16.7449 21.0338C16.397 20.6859 16.2228 20.2673 16.2222 19.7778C16.2216 19.2883 16.3959 18.8699 16.7449 18.5227C17.0939 18.1754 17.5123 18.0012 18 18C18.4877 17.9988 18.9064 18.173 19.256 18.5227C19.6056 18.8723 19.7796 19.2907 19.7778 19.7778C19.776 20.2649 19.6021 20.6836 19.256 21.0338C18.9099 21.384 18.4913 21.5579 18 21.5556ZM13.8889 13.5556H22.1111L23.2444 11.2889C23.3926 10.9926 23.3813 10.7037 23.2107 10.4222C23.04 10.1407 22.7846 10 22.4444 10H13.5556C13.2148 10 12.9594 10.1407 12.7893 10.4222C12.6193 10.7037 12.608 10.9926 12.7556 11.2889L13.8889 13.5556ZM14.8 26H21.2C22.5333 26 23.6667 25.5372 24.6 24.6116C25.5333 23.6859 26 22.5487 26 21.2C26 20.637 25.9037 20.0889 25.7111 19.5556C25.5185 19.0222 25.2444 18.5407 24.8889 18.1111L22.5778 15.3333H13.4222L11.1111 18.1111C10.7556 18.5407 10.4815 19.0222 10.2889 19.5556C10.0963 20.0889 10 20.637 10 21.2C10 22.5481 10.4631 23.6853 11.3893 24.6116C12.3156 25.5378 13.4524 26.0006 14.8 26Z" fill="#71503D"/>
</svg>
