<svg width="36" height="37" viewBox="0 0 36 37" fill="none" xmlns="http://www.w3.org/2000/svg">
<rect y="0.92186" width="36" height="36" rx="18" fill="#D7EAFF"/>
<path d="M18 22.4774C17.5111 22.4774 17.0927 22.3035 16.7449 21.9556C16.397 21.6078 16.2228 21.1891 16.2222 20.6996C16.2216 20.2102 16.3959 19.7918 16.7449 19.4445C17.0939 19.0973 17.5123 18.923 18 18.9219C18.4877 18.9207 18.9064 19.0949 19.256 19.4445C19.6056 19.7942 19.7796 20.2125 19.7778 20.6996C19.776 21.1867 19.6021 21.6054 19.256 21.9556C18.9099 22.3059 18.4913 22.4798 18 22.4774ZM13.8889 14.4774H22.1111L23.2444 12.2107C23.3926 11.9145 23.3813 11.6256 23.2107 11.3441C23.04 11.0626 22.7846 10.9219 22.4444 10.9219H13.5556C13.2148 10.9219 12.9594 11.0626 12.7893 11.3441C12.6193 11.6256 12.608 11.9145 12.7556 12.2107L13.8889 14.4774ZM14.8 26.9219H21.2C22.5333 26.9219 23.6667 26.459 24.6 25.5334C25.5333 24.6078 26 23.4706 26 22.1219C26 21.5589 25.9037 21.0107 25.7111 20.4774C25.5185 19.9441 25.2444 19.4626 24.8889 19.033L22.5778 16.2552H13.4222L11.1111 19.033C10.7556 19.4626 10.4815 19.9441 10.2889 20.4774C10.0963 21.0107 10 21.5589 10 22.1219C10 23.47 10.4631 24.6072 11.3893 25.5334C12.3156 26.4596 13.4524 26.9225 14.8 26.9219Z" fill="#023F80"/>
</svg>
