<svg width="24" height="26" viewBox="0 0 24 26" fill="none" xmlns="http://www.w3.org/2000/svg">
<path d="M10.3002 23.1755C9.01271 21.888 9.01271 19.9567 10.3002 18.6692C11.5878 17.3816 13.5191 17.3816 14.8066 18.6692L15.7722 19.6348L18.8301 16.2551C17.7035 15.6113 16.7379 15.6113 15.6113 15.6113C14.4847 15.4504 13.3581 15.1285 13.3581 14.1628C13.3581 13.1972 14.6456 13.5191 15.6113 11.7487C15.6113 11.7487 19.9567 0 10.944 0C2.09224 0 6.43765 11.7487 6.43765 11.7487C7.40329 13.3581 8.69082 13.0362 8.69082 14.1628C8.69082 15.2894 7.56424 15.2894 6.43765 15.4504C4.66729 15.6113 3.05788 15.2894 1.44847 18.1864C0.482823 19.9567 0 25.7506 0 25.7506H12.8753L10.3002 23.1755ZM18.8301 25.7506H22.2099C22.2099 25.7506 22.0489 24.3021 21.888 22.5318L18.8301 25.7506Z" fill="#71503D"/>
<path d="M15.9298 25.7506C15.447 25.7506 15.1251 25.5896 14.8032 25.2677L11.5844 22.0489C10.9406 21.4052 10.9406 20.4395 11.5844 19.7957C12.2282 19.152 13.1938 19.152 13.8376 19.7957L15.9298 21.888L21.2409 16.0941C21.8846 15.4503 22.8503 15.4503 23.494 15.9332C24.1378 16.5769 24.1378 17.5426 23.655 18.1863L17.2173 25.1068C16.7345 25.5896 16.4126 25.7506 15.9298 25.7506Z" fill="#71503D"/>
</svg>
