<svg width="24" height="24" viewBox="0 0 24 24" fill="none" xmlns="http://www.w3.org/2000/svg">
<path d="M10.2838 14.8535C10.2838 14.4535 10.3523 14.0683 10.4792 13.7105H2.5718C1.88971 13.7105 1.23557 13.9815 0.753262 14.4638C0.270956 14.9461 0 15.6002 0 16.2823V17.3328C0 17.9866 0.205744 18.6244 0.584083 19.157C2.34662 21.6305 5.2316 22.8547 9.14073 22.8547C9.59489 22.8547 10.0357 22.8383 10.4632 22.8055C10.3445 22.4531 10.2839 22.0836 10.2838 21.7117V14.8535ZM9.14073 0C9.89125 -1.11836e-08 10.6344 0.147825 11.3278 0.435036C12.0212 0.722247 12.6512 1.14322 13.1819 1.67391C13.7126 2.20461 14.1336 2.83464 14.4208 3.52803C14.708 4.22142 14.8558 4.96458 14.8558 5.7151C14.8558 6.46562 14.708 7.20879 14.4208 7.90218C14.1336 8.59556 13.7126 9.22559 13.1819 9.75629C12.6512 10.287 12.0212 10.708 11.3278 10.9952C10.6344 11.2824 9.89125 11.4302 9.14073 11.4302C7.62499 11.4302 6.17134 10.8281 5.09955 9.75629C4.02776 8.6845 3.42563 7.23084 3.42563 5.7151C3.42563 4.19936 4.02776 2.7457 5.09955 1.67391C6.17134 0.602125 7.62499 0 9.14073 0ZM11.4268 14.8535C11.4268 14.2473 11.6676 13.6658 12.0963 13.2371C12.5251 12.8084 13.1065 12.5675 13.7128 12.5675H21.714C22.3203 12.5675 22.9017 12.8084 23.3304 13.2371C23.7591 13.6658 24 14.2473 24 14.8535V21.7117C24 22.318 23.7591 22.8994 23.3304 23.3281C22.9017 23.7569 22.3203 23.9977 21.714 23.9977H13.7128C13.1065 23.9977 12.5251 23.7569 12.0963 23.3281C11.6676 22.8994 11.4268 22.318 11.4268 21.7117V14.8535ZM14.2843 15.9966C14.1328 15.9966 13.9874 16.0568 13.8802 16.164C13.773 16.2711 13.7128 16.4165 13.7128 16.5681C13.7128 16.7197 13.773 16.865 13.8802 16.9722C13.9874 17.0794 14.1328 17.1396 14.2843 17.1396H21.1424C21.294 17.1396 21.4394 17.0794 21.5466 16.9722C21.6537 16.865 21.714 16.7197 21.714 16.5681C21.714 16.4165 21.6537 16.2711 21.5466 16.164C21.4394 16.0568 21.294 15.9966 21.1424 15.9966H14.2843ZM14.2843 19.4256C14.1328 19.4256 13.9874 19.4858 13.8802 19.593C13.773 19.7002 13.7128 19.8456 13.7128 19.9971C13.7128 20.1487 13.773 20.2941 13.8802 20.4013C13.9874 20.5084 14.1328 20.5687 14.2843 20.5687H21.1424C21.294 20.5687 21.4394 20.5084 21.5466 20.4013C21.6537 20.2941 21.714 20.1487 21.714 19.9971C21.714 19.8456 21.6537 19.7002 21.5466 19.593C21.4394 19.4858 21.294 19.4256 21.1424 19.4256H14.2843Z" fill="#023F80"/>
</svg>
