<svg width="25" height="24" viewBox="0 0 25 24" fill="none" xmlns="http://www.w3.org/2000/svg">
<path d="M10.6353 14.8547C10.6353 14.4547 10.7039 14.0695 10.8308 13.7117H2.92336C2.24128 13.7117 1.58713 13.9826 1.10482 14.465C0.622519 14.9473 0.351563 15.6014 0.351562 16.2835V17.3339C0.351562 17.9877 0.557306 18.6255 0.935646 19.1582C2.69818 21.6317 5.58317 22.8559 9.4923 22.8559C9.94646 22.8559 10.3873 22.8395 10.8148 22.8067C10.696 22.4542 10.6354 22.0848 10.6353 21.7128V14.8547ZM9.4923 0.00115967C10.2428 0.00115966 10.986 0.148985 11.6794 0.436196C12.3728 0.723406 13.0028 1.14438 13.5335 1.67507C14.0642 2.20577 14.4852 2.8358 14.7724 3.52919C15.0596 4.22257 15.2074 4.96574 15.2074 5.71626C15.2074 6.46678 15.0596 7.20995 14.7724 7.90334C14.4852 8.59672 14.0642 9.22675 13.5335 9.75745C13.0028 10.2881 12.3728 10.7091 11.6794 10.9963C10.986 11.2835 10.2428 11.4314 9.4923 11.4314C7.97656 11.4314 6.5229 10.8292 5.45111 9.75745C4.37932 8.68566 3.77719 7.232 3.77719 5.71626C3.77719 4.20052 4.37932 2.74686 5.45111 1.67507C6.5229 0.603285 7.97656 0.00115967 9.4923 0.00115967ZM11.7783 14.8547C11.7783 14.2484 12.0192 13.667 12.4479 13.2382C12.8766 12.8095 13.4581 12.5687 14.0644 12.5687H22.0655C22.6718 12.5687 23.2533 12.8095 23.682 13.2382C24.1107 13.667 24.3516 14.2484 24.3516 14.8547V21.7128C24.3516 22.3191 24.1107 22.9006 23.682 23.3293C23.2533 23.758 22.6718 23.9989 22.0655 23.9989H14.0644C13.4581 23.9989 12.8766 23.758 12.4479 23.3293C12.0192 22.9006 11.7783 22.3191 11.7783 21.7128V14.8547ZM14.6359 15.9977C14.4843 15.9977 14.3389 16.0579 14.2318 16.1651C14.1246 16.2723 14.0644 16.4177 14.0644 16.5692C14.0644 16.7208 14.1246 16.8662 14.2318 16.9734C14.3389 17.0805 14.4843 17.1408 14.6359 17.1408H21.494C21.6456 17.1408 21.791 17.0805 21.8981 16.9734C22.0053 16.8662 22.0655 16.7208 22.0655 16.5692C22.0655 16.4177 22.0053 16.2723 21.8981 16.1651C21.791 16.0579 21.6456 15.9977 21.494 15.9977H14.6359ZM14.6359 19.4268C14.4843 19.4268 14.3389 19.487 14.2318 19.5942C14.1246 19.7014 14.0644 19.8467 14.0644 19.9983C14.0644 20.1499 14.1246 20.2952 14.2318 20.4024C14.3389 20.5096 14.4843 20.5698 14.6359 20.5698H21.494C21.6456 20.5698 21.791 20.5096 21.8981 20.4024C22.0053 20.2952 22.0655 20.1499 22.0655 19.9983C22.0655 19.8467 22.0053 19.7014 21.8981 19.5942C21.791 19.487 21.6456 19.4268 21.494 19.4268H14.6359Z" fill="#7B0C42"/>
</svg>
