<svg width="15" height="14" viewBox="0 0 15 14" fill="none" xmlns="http://www.w3.org/2000/svg">
<path d="M7.5 10.1111C7.07222 10.1111 6.70615 9.95893 6.40178 9.65456C6.09741 9.35019 5.94496 8.98385 5.94444 8.55556C5.94393 8.12726 6.09637 7.76119 6.40178 7.45733C6.70719 7.15348 7.07326 7.00104 7.5 7C7.92674 6.99896 8.29307 7.15141 8.599 7.45733C8.90493 7.76326 9.05711 8.12933 9.05556 8.55556C9.054 8.98178 8.90182 9.34811 8.599 9.65456C8.29619 9.961 7.92985 10.1132 7.5 10.1111ZM3.90278 3.11111H11.0972L12.6528 0H2.34722L3.90278 3.11111ZM4.7 14H10.3C11.4667 14 12.4583 13.595 13.275 12.7851C14.0917 11.9752 14.5 10.9801 14.5 9.8C14.5 9.30741 14.4157 8.82778 14.2472 8.36111C14.0787 7.89444 13.8389 7.47315 13.5278 7.09722L11.5056 4.66667H3.49444L1.47222 7.09722C1.16111 7.47315 0.921296 7.89444 0.752778 8.36111C0.584259 8.82778 0.5 9.30741 0.5 9.8C0.5 10.9796 0.905222 11.9747 1.71567 12.7851C2.52611 13.5956 3.52089 14.0005 4.7 14Z" fill="white"/>
</svg>
