<svg width="25" height="24" viewBox="0 0 25 24" fill="none" xmlns="http://www.w3.org/2000/svg">
<path d="M11.4484 7.01636C10.3252 7.32356 9.64844 8.18636 9.64844 8.99996C9.64844 9.81356 10.3252 10.6764 11.4484 10.9824V7.01636ZM13.2484 13.0176V16.9824C14.3716 16.6764 15.0484 15.8136 15.0484 15C15.0484 14.1864 14.3716 13.3236 13.2484 13.0176Z" fill="#7B0C42"/>
<path fill-rule="evenodd" clip-rule="evenodd" d="M24.3477 12C24.3477 18.6276 18.9753 24 12.3477 24C5.72006 24 0.347656 18.6276 0.347656 12C0.347656 5.3724 5.72006 0 12.3477 0C18.9753 0 24.3477 5.3724 24.3477 12ZM12.3477 3.9C12.5864 3.9 12.8153 3.99482 12.9841 4.1636C13.1528 4.33239 13.2477 4.56131 13.2477 4.8V5.1804C15.2037 5.5308 16.8477 7.0008 16.8477 9C16.8477 9.2387 16.7528 9.46761 16.5841 9.6364C16.4153 9.80518 16.1864 9.9 15.9477 9.9C15.709 9.9 15.48 9.80518 15.3113 9.6364C15.1425 9.46761 15.0477 9.2387 15.0477 9C15.0477 8.1864 14.3709 7.3236 13.2477 7.0164V11.1804C15.2037 11.5308 16.8477 13.0008 16.8477 15C16.8477 16.9992 15.2037 18.4692 13.2477 18.8196V19.2C13.2477 19.4387 13.1528 19.6676 12.9841 19.8364C12.8153 20.0052 12.5864 20.1 12.3477 20.1C12.109 20.1 11.88 20.0052 11.7113 19.8364C11.5425 19.6676 11.4477 19.4387 11.4477 19.2V18.8196C9.49166 18.4692 7.84766 16.9992 7.84766 15C7.84766 14.7613 7.94248 14.5324 8.11126 14.3636C8.28004 14.1948 8.50896 14.1 8.74766 14.1C8.98635 14.1 9.21527 14.1948 9.38405 14.3636C9.55284 14.5324 9.64766 14.7613 9.64766 15C9.64766 15.8136 10.3245 16.6764 11.4477 16.9824V12.8196C9.49166 12.4692 7.84766 10.9992 7.84766 9C7.84766 7.0008 9.49166 5.5308 11.4477 5.1804V4.8C11.4477 4.56131 11.5425 4.33239 11.7113 4.1636C11.88 3.99482 12.109 3.9 12.3477 3.9Z" fill="#7B0C42"/>
</svg>
