<svg width="25" height="24" viewBox="0 0 25 24" fill="none" xmlns="http://www.w3.org/2000/svg">
<path d="M21.681 0H3.01432C1.53432 0 0.347656 1.18667 0.347656 2.66667V21.3333C0.347656 22.0406 0.628608 22.7189 1.1287 23.219C1.6288 23.719 2.30708 24 3.01432 24H21.681C23.161 24 24.3477 22.8133 24.3477 21.3333V2.66667C24.3477 1.95942 24.0667 1.28115 23.5666 0.781048C23.0665 0.280951 22.3882 0 21.681 0ZM8.12099 5.4C9.42766 5.4 10.481 6.45333 10.481 7.77333C10.481 9.08 9.42766 10.1333 8.12099 10.1333C6.80099 10.1333 5.74766 9.08 5.74766 7.77333C5.74766 6.45333 6.80099 5.4 8.12099 5.4ZM16.641 18.6667C15.3343 18.6667 14.281 17.6 14.281 16.2933C14.281 14.9867 15.3343 13.9333 16.641 13.9333C17.9477 13.9333 19.0143 14.9867 19.0143 16.2933C19.0143 17.6 17.9477 18.6667 16.641 18.6667ZM7.68099 18.7067L5.68099 16.7067L17.0543 5.33333L19.0543 7.33333L7.68099 18.7067Z" fill="#7B0C42"/>
</svg>
