<svg width="24" height="26" viewBox="0 0 24 26" fill="none" xmlns="http://www.w3.org/2000/svg">
<path d="M1.42741 2.12815C1.19466 2.59107 1.08022 3.16458 0.851329 4.30902L0.0823668 8.15383C-0.0266138 8.67806 -0.0274579 9.21901 0.0798863 9.74357C0.18723 10.2681 0.400504 10.7653 0.706651 11.2045C1.0128 11.6438 1.40538 12.016 1.86035 12.2983C2.31533 12.5806 2.82313 12.767 3.35267 12.8462C3.88222 12.9255 4.42235 12.8958 4.94002 12.759C5.45769 12.6222 5.94199 12.3812 6.36329 12.0507C6.78458 11.7203 7.134 11.3073 7.39015 10.8371C7.64631 10.367 7.8038 9.84944 7.853 9.31628L7.94302 8.42901C7.89428 8.99331 7.9638 9.56157 8.14712 10.0975C8.33044 10.6334 8.62354 11.1252 9.00768 11.5414C9.39182 11.9576 9.85857 12.2891 10.3781 12.5148C10.8976 12.7404 11.4585 12.8551 12.0249 12.8517C12.5913 12.8483 13.1507 12.7268 13.6675 12.4949C14.1842 12.2631 14.6469 11.926 15.026 11.5051C15.4051 11.0843 15.6923 10.589 15.8691 10.051C16.046 9.51287 16.1087 8.94382 16.0531 8.38015L16.147 9.31628C16.1962 9.84944 16.3537 10.367 16.6098 10.8371C16.866 11.3073 17.2154 11.7203 17.6367 12.0507C18.058 12.3812 18.5423 12.6222 19.06 12.759C19.5776 12.8958 20.1178 12.9255 20.6473 12.8462C21.1769 12.767 21.6847 12.5806 22.1396 12.2983C22.5946 12.016 22.9872 11.6438 23.2934 11.2045C23.5995 10.7653 23.8128 10.2681 23.9201 9.74357C24.0275 9.21901 24.0266 8.67806 23.9176 8.15383L23.1487 4.30902C22.9198 3.16458 22.8053 2.59236 22.5726 2.12815C22.3301 1.6447 21.9886 1.21766 21.5704 0.874728C21.1521 0.531799 20.6664 0.280653 20.1448 0.13759C19.6433 1.43709e-07 19.0595 0 17.892 0H6.10805C4.94046 0 4.35667 1.43709e-07 3.85517 0.13759C3.33357 0.280653 2.84788 0.531799 2.42963 0.874728C2.01139 1.21766 1.66992 1.6447 1.42741 2.12815ZM20.0612 14.7877C21.0659 14.7903 22.0542 14.5329 22.9301 14.0406V15.4307C22.9301 20.2798 22.9301 22.705 21.423 24.2107C20.2104 25.4246 18.4037 25.6599 15.2147 25.7062V21.2172C15.2147 20.0149 15.2147 19.4144 14.9563 18.9669C14.787 18.6737 14.5435 18.4302 14.2503 18.2609C13.8028 18.0025 13.2023 18.0025 12 18.0025C10.7977 18.0025 10.1972 18.0025 9.74969 18.2609C9.4565 18.4302 9.21302 18.6737 9.04374 18.9669C8.78527 19.4144 8.78527 20.0149 8.78527 21.2172V25.7062C5.59627 25.6599 3.78959 25.4233 2.57699 24.2107C1.06993 22.705 1.06993 20.2798 1.06993 15.4307V14.0406C1.94615 14.5331 2.9349 14.7905 3.94004 14.7877C5.42606 14.7887 6.85677 14.2241 7.94173 13.2087C9.04724 14.2275 10.4966 14.7915 12 14.7877C13.5034 14.7915 14.9528 14.2275 16.0583 13.2087C17.1432 14.2241 18.5752 14.7887 20.0612 14.7877Z" fill="#71503D"/>
</svg>
