<svg width="24" height="25" viewBox="0 0 24 25" fill="none" xmlns="http://www.w3.org/2000/svg">
<path d="M0.925243 15.5834L1.55883 17.9511C2.29903 20.7146 2.67035 22.0969 3.50982 22.9928C4.17238 23.6996 5.02955 24.1943 5.97307 24.4144C7.16916 24.6938 8.55152 24.3237 11.3162 23.5835C14.0785 22.8433 15.4609 22.4732 16.3567 21.6337C16.4311 21.5634 16.503 21.4915 16.5724 21.418C16.155 21.3804 15.7401 21.319 15.3298 21.2342C14.4768 21.0651 13.4633 20.793 12.2648 20.4719L12.1337 20.4364L12.103 20.429C10.7991 20.0785 9.70962 19.7869 8.83951 19.4731C7.92407 19.1423 7.09318 18.7342 6.38606 18.0724C5.41341 17.1611 4.73276 15.9819 4.43017 14.6839C4.20958 13.7415 4.2733 12.8175 4.44487 11.8604C4.60909 10.9425 4.90321 9.84196 5.25615 8.52455L5.9118 6.0809L5.93386 5.99512C3.5809 6.6287 2.34192 7.0037 1.51593 7.77699C0.808199 8.44005 0.313048 9.29814 0.0931299 10.2427C-0.186284 11.4376 0.183817 12.8199 0.925243 15.5834Z" fill="#023F80"/>
<path fill-rule="evenodd" clip-rule="evenodd" d="M23.0766 10.6802L22.4418 13.0479C21.7003 15.8114 21.3302 17.1937 20.4908 18.0896C19.8284 18.7969 18.9712 19.292 18.0275 19.5124C17.909 19.5402 17.7885 19.5614 17.666 19.5761C16.5447 19.7146 15.1758 19.3482 12.6856 18.6815C9.92206 17.9401 8.5397 17.57 7.64386 16.7305C6.93634 16.0678 6.4412 15.2101 6.22106 14.266C5.94165 13.0699 6.31175 11.6888 7.05317 8.9253L7.68676 6.55763L7.98578 5.44856C8.54338 3.40688 8.91838 2.2831 9.63775 1.51471C10.3003 0.80784 11.1575 0.313156 12.101 0.0931299C13.2971 -0.186284 14.6794 0.183817 17.4442 0.925243C20.2064 1.66544 21.5888 2.03554 22.4846 2.87379C23.1924 3.53685 23.6875 4.39494 23.9075 5.33949C24.1869 6.53557 23.8168 7.91671 23.0766 10.6802ZM11.0924 9.56501C11.1237 9.4484 11.1776 9.33909 11.2512 9.24334C11.3247 9.14758 11.4164 9.06725 11.521 9.00693C11.6256 8.94662 11.741 8.9075 11.8607 8.89181C11.9804 8.87612 12.1021 8.88416 12.2186 8.91549L18.1378 10.5025C18.2575 10.5309 18.3702 10.583 18.4694 10.6557C18.5686 10.7285 18.6521 10.8204 18.7151 10.926C18.7781 11.0317 18.8193 11.1489 18.8362 11.2707C18.8531 11.3925 18.8453 11.5165 18.8134 11.6353C18.7815 11.7541 18.7261 11.8653 18.6504 11.9622C18.5747 12.0592 18.4804 12.14 18.3729 12.1998C18.2655 12.2597 18.1471 12.2973 18.0248 12.3106C17.9026 12.3239 17.7789 12.3125 17.6611 12.277L11.7419 10.6912C11.5067 10.6281 11.3062 10.4741 11.1844 10.2631C11.0626 10.0522 11.0295 9.80032 11.0924 9.56501ZM10.1414 13.1177C10.2046 12.8825 10.3586 12.682 10.5695 12.5602C10.7805 12.4384 11.0311 12.4053 11.2664 12.4682L14.8179 13.4204C14.9382 13.4482 15.0516 13.4999 15.1514 13.5724C15.2513 13.6449 15.3355 13.7368 15.3991 13.8426C15.4626 13.9484 15.5042 14.0659 15.5214 14.1881C15.5386 14.3103 15.531 14.4347 15.499 14.5539C15.4671 14.6731 15.4115 14.7846 15.3355 14.8819C15.2595 14.9791 15.1647 15.0601 15.0568 15.1199C14.9489 15.1797 14.83 15.2172 14.7073 15.2301C14.5845 15.243 14.4604 15.231 14.3424 15.1949L10.7909 14.244C10.6743 14.2127 10.565 14.1587 10.4693 14.0852C10.3735 14.0117 10.2932 13.92 10.2329 13.8154C10.1726 13.7108 10.1334 13.5954 10.1177 13.4757C10.1021 13.356 10.1101 13.2343 10.1414 13.1177Z" fill="#023F80"/>
</svg>
