<svg width="25" height="26" viewBox="0 0 25 26" fill="none" xmlns="http://www.w3.org/2000/svg">
<path d="M1.27302 16.3296L1.9066 18.6973C2.64681 21.4608 3.01813 22.8432 3.8576 23.739C4.52016 24.4459 5.37733 24.9405 6.32085 25.1606C7.51694 25.44 8.8993 25.0699 11.664 24.3297C14.4263 23.5895 15.8087 23.2194 16.7045 22.3799C16.7788 22.3097 16.8507 22.2378 16.9202 22.1642C16.5028 22.1266 16.0879 22.0652 15.6775 21.9804C14.8246 21.8113 13.8111 21.5392 12.6126 21.2181L12.4814 21.1826L12.4508 21.1753C11.1469 20.8248 10.0574 20.5331 9.18729 20.2194C8.27184 19.8885 7.44096 19.4804 6.73384 18.8186C5.76119 17.9073 5.08054 16.7282 4.77795 15.4301C4.55736 14.4877 4.62108 13.5637 4.79265 12.6066C4.95687 11.6887 5.25099 10.5882 5.60393 9.27076L6.25957 6.82712L6.28163 6.74133C3.92868 7.37492 2.6897 7.74992 1.86371 8.52321C1.15598 9.18627 0.660826 10.0444 0.440908 10.9889C0.161495 12.1838 0.531595 13.5661 1.27302 16.3296Z" fill="#7B0C42"/>
<path fill-rule="evenodd" clip-rule="evenodd" d="M23.4239 11.4264L22.789 13.7941C22.0476 16.5576 21.6775 17.94 20.8381 18.8358C20.1757 19.5431 19.3185 20.0382 18.3748 20.2586C18.2563 20.2864 18.1358 20.3076 18.0133 20.3223C16.8919 20.4608 15.5231 20.0944 13.0329 19.4277C10.2694 18.6863 8.88699 18.3162 7.99115 17.4767C7.28363 16.814 6.78849 15.9563 6.56835 15.0122C6.28894 13.8161 6.65904 12.435 7.40046 9.67151L8.03405 7.30385L8.33307 6.19477C8.89067 4.15309 9.26567 3.02931 9.98504 2.26092C10.6476 1.55406 11.5048 1.05937 12.4483 0.839346C13.6444 0.559932 15.0267 0.930033 17.7915 1.67146C20.5537 2.41166 21.9361 2.78176 22.8319 3.62C23.5397 4.28306 24.0348 5.14115 24.2547 6.0857C24.5342 7.28179 24.1641 8.66293 23.4239 11.4264ZM11.4397 10.3112C11.471 10.1946 11.5249 10.0853 11.5985 9.98955C11.672 9.8938 11.7637 9.81347 11.8683 9.75315C11.9729 9.69283 12.0883 9.65371 12.208 9.63802C12.3277 9.62233 12.4493 9.63038 12.5659 9.66171L18.4851 11.2487C18.6048 11.2771 18.7175 11.3292 18.8167 11.402C18.9159 11.4747 18.9994 11.5666 19.0624 11.6723C19.1254 11.7779 19.1666 11.8951 19.1835 12.0169C19.2003 12.1388 19.1926 12.2627 19.1607 12.3815C19.1288 12.5003 19.0734 12.6115 18.9977 12.7084C18.922 12.8054 18.8277 12.8862 18.7202 12.9461C18.6128 13.0059 18.4944 13.0436 18.3721 13.0568C18.2499 13.0701 18.1262 13.0587 18.0084 13.0233L12.0892 11.4375C11.854 11.3743 11.6535 11.2203 11.5317 11.0094C11.4099 10.7984 11.3768 10.5465 11.4397 10.3112ZM10.4887 13.8639C10.5519 13.6287 10.7059 13.4282 10.9168 13.3064C11.1278 13.1846 11.3784 13.1515 11.6137 13.2144L15.1652 14.1666C15.2855 14.1944 15.3989 14.2461 15.4987 14.3186C15.5986 14.3911 15.6828 14.483 15.7464 14.5888C15.8099 14.6946 15.8515 14.8121 15.8687 14.9343C15.8859 15.0565 15.8783 15.1809 15.8463 15.3001C15.8144 15.4193 15.7588 15.5309 15.6828 15.6281C15.6068 15.7254 15.512 15.8063 15.4041 15.8661C15.2962 15.9259 15.1773 15.9634 15.0545 15.9763C14.9318 15.9892 14.8077 15.9773 14.6897 15.9412L11.1382 14.9902C11.0216 14.9589 10.9123 14.9049 10.8166 14.8314C10.7208 14.7579 10.6405 14.6662 10.5802 14.5616C10.5198 14.457 10.4807 14.3416 10.465 14.2219C10.4493 14.1022 10.4574 13.9805 10.4887 13.8639Z" fill="#7B0C42"/>
</svg>
