<svg width="17" height="18" viewBox="0 0 17 18" fill="none" xmlns="http://www.w3.org/2000/svg">
<path d="M8.98911 17.5412L8.98003 17.5429L8.92144 17.5718L8.90494 17.5751L8.89339 17.5718L8.8348 17.5429C8.826 17.5401 8.8194 17.5415 8.815 17.547L8.8117 17.5553L8.79767 17.9084L8.8018 17.9249L8.81005 17.9357L8.89586 17.9967L8.90824 18L8.91814 17.9967L9.00396 17.9357L9.01386 17.9225L9.01716 17.9084L9.00313 17.5561C9.00093 17.5473 8.99626 17.5423 8.98911 17.5412ZM9.20777 17.448L9.19705 17.4497L9.04439 17.5264L9.03614 17.5346L9.03367 17.5437L9.04852 17.8985L9.05264 17.9084L9.05925 17.9142L9.2251 17.991C9.23555 17.9937 9.24353 17.9915 9.24903 17.9844L9.25233 17.9728L9.22428 17.4662C9.22153 17.4563 9.21602 17.4502 9.20777 17.448ZM8.61779 17.4497C8.61415 17.4475 8.6098 17.4467 8.60565 17.4477C8.6015 17.4486 8.59787 17.4511 8.59551 17.4546L8.59055 17.4662L8.5625 17.9728C8.56305 17.9827 8.56773 17.9893 8.57653 17.9926L8.5889 17.991L8.75476 17.9142L8.76301 17.9076L8.76631 17.8985L8.78034 17.5437L8.77787 17.5338L8.76961 17.5256L8.61779 17.4497Z" fill="#7B0C42"/>
<path d="M11.8022 11.5522C12.0043 11.5522 12.1994 11.6264 12.3504 11.7607C12.5015 11.895 12.598 12.0801 12.6216 12.2808L12.6274 12.3774V15.678C12.6273 15.8801 12.5531 16.0752 12.4188 16.2262C12.2845 16.3773 12.0995 16.4737 11.8988 16.4974L11.8022 16.5032H5.20095C4.99884 16.5031 4.80377 16.4289 4.65274 16.2946C4.5017 16.1603 4.40521 15.9753 4.38157 15.7746L4.37579 15.678V12.3774C4.37582 12.1753 4.45002 11.9802 4.58432 11.8292C4.71862 11.6781 4.90369 11.5816 5.10441 11.558L5.20095 11.5522H11.8022ZM14.2777 4.12579C14.9342 4.12579 15.5639 4.3866 16.0281 4.85084C16.4924 5.31508 16.7532 5.94473 16.7532 6.60127V12.3774C16.7532 12.8151 16.5793 13.2348 16.2698 13.5443C15.9603 13.8538 15.5405 14.0277 15.1028 14.0277H14.2777V11.5522C14.2777 11.1145 14.1038 10.6948 13.7943 10.3853C13.4848 10.0758 13.0651 9.9019 12.6274 9.9019H4.37579C3.9381 9.9019 3.51834 10.0758 3.20884 10.3853C2.89935 10.6948 2.72547 11.1145 2.72547 11.5522V14.0277H1.90032C1.46263 14.0277 1.04286 13.8538 0.733366 13.5443C0.423872 13.2348 0.25 12.8151 0.25 12.3774V6.60127C0.25 5.94473 0.510808 5.31508 0.97505 4.85084C1.43929 4.3866 2.06894 4.12579 2.72547 4.12579H14.2777ZM12.6274 5.77611H10.9771C10.7667 5.77634 10.5645 5.85687 10.4115 6.00125C10.2586 6.14563 10.1666 6.34295 10.1542 6.55291C10.1419 6.76286 10.2102 6.9696 10.3452 7.13088C10.4802 7.29216 10.6717 7.39581 10.8805 7.42065L10.9771 7.42642H12.6274C12.8377 7.42619 13.04 7.34566 13.1929 7.20128C13.3458 7.0569 13.4379 6.85958 13.4502 6.64962C13.4625 6.43967 13.3942 6.23293 13.2592 6.07165C13.1242 5.91037 12.9328 5.80672 12.7239 5.78188L12.6274 5.77611ZM12.6274 0C12.8462 0 13.0561 0.086936 13.2108 0.241683C13.3656 0.39643 13.4525 0.606313 13.4525 0.825158V2.47547H3.55063V0.825158C3.55063 0.606313 3.63757 0.39643 3.79232 0.241683C3.94706 0.086936 4.15695 0 4.37579 0H12.6274Z" fill="#7B0C42"/>
</svg>
