<svg width="24" height="25" viewBox="0 0 24 25" fill="none" xmlns="http://www.w3.org/2000/svg">
<path d="M10.7625 2.9923V7.77012C10.7625 8.16573 10.6844 8.55744 10.5326 8.92278C10.3808 9.28812 10.1584 9.6199 9.8781 9.89906C9.59779 10.1782 9.26511 10.3993 8.89915 10.5496C8.53319 10.6998 8.14116 10.7763 7.74555 10.7747H2.99236C2.59782 10.7771 2.20686 10.6998 1.84292 10.5475C1.47897 10.3951 1.14954 10.1709 0.874356 9.88812C0.594971 9.61106 0.373723 9.281 0.22359 8.9173C0.0734579 8.5536 -0.00253637 8.16358 6.45748e-05 7.77012V3.00461C5.79003e-05 2.20987 0.314923 1.44749 0.875736 0.884372C1.43655 0.321251 2.19762 0.00325714 2.99236 0H7.75787C8.15199 0.000378673 8.54213 0.0789358 8.90569 0.231123C9.26925 0.38331 9.59901 0.606104 9.87587 0.886606C10.156 1.16119 10.3787 1.48879 10.5309 1.85031C10.6831 2.21183 10.7618 2.60004 10.7625 2.9923ZM24 3.00461V7.77012C23.9936 8.56289 23.6767 9.32156 23.1172 9.8833C22.5578 10.445 21.8004 10.7651 21.0077 10.7747H16.2299C15.4334 10.7699 14.6698 10.4565 14.0996 9.90043C13.8209 9.62028 13.6003 9.28791 13.4502 8.92236C13.3002 8.55681 13.2238 8.16525 13.2253 7.77012V3.00461C13.2243 2.61028 13.3022 2.21973 13.4545 1.85599C13.6067 1.49224 13.8303 1.16264 14.1119 0.886606C14.3887 0.606104 14.7185 0.38331 15.0821 0.231123C15.4456 0.0789358 15.8358 0.000378673 16.2299 0H20.9954C21.7903 0.0064366 22.5508 0.325059 23.1129 0.887144C23.6749 1.44923 23.9936 2.20973 24 3.00461ZM24 16.2421V21.0076C23.9936 21.8004 23.6767 22.5591 23.1172 23.1208C22.5578 23.6826 21.8004 24.0026 21.0077 24.0122H16.2299C15.4283 24.0204 14.6552 23.7156 14.0749 23.1626C13.7952 22.8832 13.5738 22.551 13.4237 22.1853C13.2736 21.8195 13.1978 21.4276 13.2006 21.0323V16.2668C13.1997 15.8724 13.2776 15.4819 13.4298 15.1181C13.5821 14.7544 13.8056 14.4248 14.0873 14.1488C14.3641 13.8683 14.6939 13.6455 15.0574 13.4933C15.421 13.3411 15.8111 13.2625 16.2053 13.2621H20.9708C21.7656 13.2686 22.5261 13.5872 23.0882 14.1493C23.6503 14.7114 23.9689 15.4719 23.9754 16.2668L24 16.2421ZM10.7625 16.2544V21.02C10.7528 21.8148 10.4311 22.574 9.86666 23.1338C9.30227 23.6936 8.54046 24.0091 7.74555 24.0122H2.99236C2.59895 24.0139 2.20911 23.9376 1.84533 23.7878C1.48156 23.638 1.15104 23.4176 0.872855 23.1395C0.59467 22.8613 0.374321 22.5308 0.224521 22.167C0.0747215 21.8032 -0.00156447 21.4134 6.45748e-05 21.02V16.2544C0.00323691 15.4595 0.318741 14.6977 0.878523 14.1333C1.4383 13.5689 2.1975 13.2472 2.99236 13.2375H7.75787C8.55606 13.2457 9.31988 13.5636 9.88819 14.1241C10.4498 14.6907 10.7642 15.4567 10.7625 16.2544Z" fill="#023F80"/>
</svg>
