<svg width="25" height="24" viewBox="0 0 25 24" fill="none" xmlns="http://www.w3.org/2000/svg">
<path d="M11.1101 2.98609V7.76391C11.1101 8.15952 11.032 8.55124 10.8802 8.91658C10.7285 9.28192 10.5061 9.61369 10.2258 9.89286C9.94545 10.172 9.61277 10.3931 9.24681 10.5434C8.88085 10.6936 8.48882 10.7701 8.09321 10.7685H3.34002C2.94548 10.7709 2.55452 10.6936 2.19057 10.5413C1.82663 10.3889 1.49719 10.1647 1.22201 9.88192C0.942627 9.60486 0.721379 9.2748 0.571247 8.9111C0.421114 8.54739 0.34512 8.15738 0.347721 7.76391V2.99841C0.347714 2.20366 0.662579 1.44129 1.22339 0.878169C1.78421 0.315048 2.54528 -0.00294555 3.34002 -0.0062027H8.10552C8.49965 -0.00582402 8.88979 0.0727331 9.25335 0.22492C9.6169 0.377108 9.94666 0.599902 10.2235 0.880403C10.5037 1.15498 10.7263 1.48259 10.8785 1.84411C11.0308 2.20563 11.1095 2.59383 11.1101 2.98609ZM24.3477 2.99841V7.76391C24.3413 8.55669 24.0243 9.31536 23.4649 9.8771C22.9055 10.4388 22.1481 10.7589 21.3554 10.7685H16.5775C15.7811 10.7636 15.0175 10.4503 14.4472 9.89423C14.1686 9.61407 13.9479 9.2817 13.7979 8.91615C13.6479 8.5506 13.5714 8.15905 13.5729 7.76391V2.99841C13.5719 2.60407 13.6499 2.21353 13.8021 1.84978C13.9544 1.48603 14.1779 1.15644 14.4595 0.880403C14.7364 0.599902 15.0662 0.377108 15.4297 0.22492C15.7933 0.0727331 16.1834 -0.00582402 16.5775 -0.0062027H21.343C22.1379 0.000233903 22.8984 0.318857 23.4605 0.880941C24.0226 1.44303 24.3412 2.20353 24.3477 2.99841ZM24.3477 16.2359V21.0014C24.3413 21.7942 24.0243 22.5529 23.4649 23.1146C22.9055 23.6764 22.1481 23.9964 21.3554 24.006H16.5775C15.776 24.0142 15.0029 23.7094 14.4226 23.1564C14.1428 22.877 13.9215 22.5448 13.7714 22.1791C13.6213 21.8133 13.5454 21.4214 13.5483 21.0261V16.2606C13.5473 15.8662 13.6252 15.4757 13.7775 15.1119C13.9298 14.7482 14.1533 14.4186 14.4349 14.1426C14.7118 13.8621 15.0415 13.6393 15.4051 13.4871C15.7686 13.3349 16.1588 13.2563 16.5529 13.2559H21.3184C22.1133 13.2624 22.8738 13.581 23.4359 14.1431C23.998 14.7052 24.3166 15.4657 24.323 16.2606L24.3477 16.2359ZM11.1101 16.2482V21.0137C11.1004 21.8086 10.7787 22.5678 10.2143 23.1276C9.64993 23.6874 8.88812 24.0029 8.09321 24.006H3.34002C2.94661 24.0077 2.55677 23.9314 2.19299 23.7816C1.82921 23.6318 1.4987 23.4114 1.22051 23.1333C0.942326 22.8551 0.721978 22.5246 0.572178 22.1608C0.422378 21.797 0.346092 21.4072 0.347721 21.0137V16.2482C0.350893 15.4533 0.666397 14.6915 1.22618 14.1271C1.78596 13.5627 2.54516 13.241 3.34002 13.2313H8.10552C8.90372 13.2395 9.66754 13.5574 10.2358 14.1179C10.7975 14.6845 11.1118 15.4505 11.1101 16.2482Z" fill="#71503D"/>
</svg>
