<svg width="24" height="26" viewBox="0 0 24 26" fill="none" xmlns="http://www.w3.org/2000/svg">
<path d="M18.6918 8.3823L23.1369 5.85253C22.9593 5.67497 22.7465 5.53322 22.4867 5.39097L14.1518 0.639127C13.4188 0.224981 12.7091 0 11.9998 0C11.2906 0 10.5814 0.224476 9.84789 0.638623L7.44827 1.99759L18.6918 8.3823ZM11.9998 12.1777L17.0483 9.31653L5.85221 2.92021L1.51301 5.39147C1.25272 5.53271 1.04035 5.67497 0.862278 5.85253L11.9998 12.1777ZM12.8039 25.7265C12.8866 25.7028 12.9573 25.6675 13.0405 25.6206L22.2975 20.3472C23.3972 19.7206 24 19.082 24 17.3679V8.15783C24 7.80321 23.9647 7.51921 23.9057 7.25942L12.8039 13.5962V25.7265ZM11.1958 25.7265V13.5962L0.0950226 7.25942C0.0290608 7.55409 -0.00276041 7.85537 0.000187502 8.15732V17.3679C0.000187502 19.082 0.602995 19.7206 1.70268 20.3472L10.9602 25.6201C11.0429 25.6675 11.113 25.7028 11.1958 25.7265Z" fill="#71503D"/>
</svg>
