<svg width="25" height="26" viewBox="0 0 25 26" fill="none" xmlns="http://www.w3.org/2000/svg">
<path d="M19.0394 8.51902L23.4846 5.98925C23.307 5.81169 23.0941 5.66994 22.8343 5.52768L14.4994 0.775846C13.7665 0.3617 13.0567 0.136719 12.3475 0.136719C11.6383 0.136719 10.929 0.361195 10.1955 0.775342L7.79592 2.13431L19.0394 8.51902ZM12.3475 12.3144L17.3959 9.45325L6.19987 3.05693L1.86066 5.52819C1.60037 5.66943 1.388 5.81169 1.20993 5.98925L12.3475 12.3144ZM13.1516 25.8632C13.2343 25.8395 13.3049 25.8042 13.3882 25.7573L22.6452 20.4839C23.7448 19.8574 24.3477 19.2187 24.3477 17.5046V8.29455C24.3477 7.93992 24.3123 7.65592 24.2533 7.39614L13.1516 13.7329V25.8632ZM11.5434 25.8632V13.7329L0.442679 7.39614C0.376717 7.69081 0.344896 7.99209 0.347844 8.29404V17.5046C0.347844 19.2187 0.950651 19.8574 2.05033 20.4839L11.3078 25.7568C11.3906 25.8042 11.4607 25.8395 11.5434 25.8632Z" fill="#7B0C42"/>
</svg>
