<svg width="24" height="26" viewBox="0 0 24 26" fill="none" xmlns="http://www.w3.org/2000/svg">
<path d="M21.0395 25.6971H22.0032V24.7335L21.0395 25.6971ZM12.0455 22.3244C10.9213 21.2001 10.4395 19.4334 10.7607 17.8274C11.0819 16.2213 12.0455 14.9365 13.491 14.4546C13.491 14.294 13.3304 14.1334 13.3304 14.1334C13.3304 13.1698 14.6152 13.491 15.5789 11.7243C15.5789 11.7243 19.9153 0 10.9213 0C2.08789 0 6.42428 11.7243 6.42428 11.7243C7.38792 13.3304 8.67278 13.0092 8.67278 14.1334C8.67278 15.2577 7.54853 15.2577 6.42428 15.4183C4.6576 15.5789 3.05153 15.2577 1.44546 18.1486C0.481821 19.9153 0 25.6971 0 25.6971H15.4183L12.0455 22.3244Z" fill="#2D2D2D"/>
<path d="M22.1605 16.2213C21.8393 16.0607 21.3574 16.0607 21.0362 16.0607C19.912 16.0607 18.9483 17.0243 18.3059 17.8274C17.6635 17.0243 16.6998 16.0607 15.5756 16.0607C15.0938 16.0607 14.7726 16.0607 14.4513 16.2213C12.5241 16.8637 12.2028 19.4334 13.6483 20.8789L18.4665 25.5365L23.2847 20.8789C24.5696 19.4334 24.0878 16.8637 22.1605 16.2213Z" fill="#2D2D2D"/>
</svg>
