<svg width="25" height="26" viewBox="0 0 25 26" fill="none" xmlns="http://www.w3.org/2000/svg">
<path d="M21.3872 25.8485H22.3508V24.8849L21.3872 25.8485ZM12.3932 22.4758C11.2689 21.3516 10.7871 19.5849 11.1083 17.9788C11.4295 16.3727 12.3932 15.0879 13.8386 14.6061C13.8386 14.4455 13.678 14.2848 13.678 14.2848C13.678 13.3212 14.9629 13.6424 15.9265 11.8757C15.9265 11.8757 20.2629 0.151428 11.2689 0.151428C2.43555 0.151428 6.77194 11.8757 6.77194 11.8757C7.73558 13.4818 9.02043 13.1606 9.02043 14.2848C9.02043 15.4091 7.89619 15.4091 6.77194 15.5697C5.00526 15.7303 3.39919 15.4091 1.79312 18.3C0.829477 20.0667 0.347656 25.8485 0.347656 25.8485H15.7659L12.3932 22.4758Z" fill="#7B0C42"/>
<path d="M22.5081 16.3727C22.1869 16.2121 21.7051 16.2121 21.3839 16.2121C20.2596 16.2121 19.296 17.1758 18.6536 17.9788C18.0111 17.1758 17.0475 16.2121 15.9232 16.2121C15.4414 16.2121 15.1202 16.2121 14.799 16.3727C12.8717 17.0152 12.5505 19.5849 13.996 21.0303L18.8142 25.6879L23.6324 21.0303C24.9172 19.5849 24.4354 17.0152 22.5081 16.3727Z" fill="#7B0C42"/>
</svg>
