<svg width="25" height="22" viewBox="0 0 25 22" fill="none" xmlns="http://www.w3.org/2000/svg">
<path d="M7.54838 10.3999C8.82154 10.3999 10.0426 9.89418 10.9428 8.99391C11.8431 8.09365 12.3489 6.87263 12.3489 5.59946C12.3489 4.32629 11.8431 3.10527 10.9428 2.20501C10.0426 1.30474 8.82154 0.798981 7.54838 0.798981C6.27521 0.798981 5.05419 1.30474 4.15392 2.20501C3.25366 3.10527 2.7479 4.32629 2.7479 5.59946C2.7479 6.87263 3.25366 8.09365 4.15392 8.99391C5.05419 9.89418 6.27521 10.3999 7.54838 10.3999ZM18.3495 10.3999C19.3043 10.3999 20.2201 10.0206 20.8953 9.34542C21.5705 8.67022 21.9498 7.75446 21.9498 6.79958C21.9498 5.84471 21.5705 4.92894 20.8953 4.25374C20.2201 3.57854 19.3043 3.19922 18.3495 3.19922C17.3946 3.19922 16.4788 3.57854 15.8036 4.25374C15.1284 4.92894 14.7491 5.84471 14.7491 6.79958C14.7491 7.75446 15.1284 8.67022 15.8036 9.34542C16.4788 10.0206 17.3946 10.3999 18.3495 10.3999ZM3.34796 12.8002C1.69179 12.8002 0.347656 14.1443 0.347656 15.8005C0.347656 15.8005 0.347656 21.201 7.54838 21.201C13.2561 21.201 14.4395 17.8071 14.6843 16.4005C14.7491 16.0333 14.7491 15.8005 14.7491 15.8005C14.7491 14.1443 13.405 12.8002 11.7488 12.8002H3.34796ZM17.1397 16.6406C17.1349 16.7366 17.1253 16.8502 17.1109 16.9814C16.9785 17.9711 16.6347 18.9206 16.1028 19.7657C16.7389 19.9121 17.4806 20.0009 18.3471 20.0009C24.3477 20.0009 24.3477 15.8005 24.3477 15.8005C24.3477 14.1443 23.0035 12.8002 21.3474 12.8002H16.2372C16.8133 13.6595 17.1469 14.6892 17.1469 15.8005V16.4005L17.1397 16.6406Z" fill="#71503D"/>
</svg>
