<svg width="24" height="21" viewBox="0 0 24 21" fill="none" xmlns="http://www.w3.org/2000/svg">
<path d="M7.20072 9.60096C8.47389 9.60096 9.69491 9.0952 10.5952 8.19493C11.4954 7.29467 12.0012 6.07365 12.0012 4.80048C12.0012 3.52731 11.4954 2.30629 10.5952 1.40603C9.69491 0.505763 8.47389 0 7.20072 0C5.92755 0 4.70653 0.505763 3.80627 1.40603C2.906 2.30629 2.40024 3.52731 2.40024 4.80048C2.40024 6.07365 2.906 7.29467 3.80627 8.19493C4.70653 9.0952 5.92755 9.60096 7.20072 9.60096ZM18.0018 9.60096C18.9567 9.60096 19.8724 9.22164 20.5476 8.54644C21.2228 7.87124 21.6022 6.95547 21.6022 6.0006C21.6022 5.04573 21.2228 4.12996 20.5476 3.45476C19.8724 2.77956 18.9567 2.40024 18.0018 2.40024C17.0469 2.40024 16.1312 2.77956 15.456 3.45476C14.7808 4.12996 14.4014 5.04573 14.4014 6.0006C14.4014 6.95547 14.7808 7.87124 15.456 8.54644C16.1312 9.22164 17.0469 9.60096 18.0018 9.60096ZM3.0003 12.0012C1.34413 12.0012 0 13.3453 0 15.0015C0 15.0015 0 20.402 7.20072 20.402C12.9085 20.402 14.0918 17.0081 14.3366 15.6016C14.4014 15.2343 14.4014 15.0015 14.4014 15.0015C14.4014 13.3453 13.0573 12.0012 11.4011 12.0012H3.0003ZM16.7921 15.8416C16.7873 15.9376 16.7777 16.0512 16.7633 16.1824C16.6308 17.1721 16.287 18.1216 15.7552 18.9667C16.3912 19.1131 17.1329 19.2019 17.9994 19.2019C24 19.2019 24 15.0015 24 15.0015C24 13.3453 22.6559 12.0012 20.9997 12.0012H15.8896C16.4656 12.8605 16.7993 13.8902 16.7993 15.0015V15.6016L16.7921 15.8416Z" fill="#2D2D2D"/>
</svg>
