<svg width="24" height="19" viewBox="0 0 24 19" fill="none" xmlns="http://www.w3.org/2000/svg">
<path d="M10.3468 13.593C10.7487 13.9949 11.2733 14.1794 11.9206 14.1465C12.5697 14.1127 13.0489 13.8838 13.3583 13.4597L18.481 6.31239C18.6633 6.04921 18.6478 5.81092 18.4344 5.59753C18.221 5.38414 17.9822 5.36813 17.7182 5.54952L10.5469 10.6496C10.105 10.9465 9.85647 11.4053 9.80134 12.026C9.74622 12.6466 9.92805 13.1689 10.3468 13.593ZM2.80076 18.6718C2.55448 18.6718 2.32775 18.6091 2.12058 18.4837C1.91252 18.3575 1.73736 18.1859 1.5951 17.9689C1.06874 17.0611 0.671295 16.1017 0.402777 15.0908C0.134259 14.0798 0 13.0507 0 12.0033C0 10.3424 0.315197 8.78195 0.945592 7.322C1.57599 5.86205 2.43133 4.59192 3.51163 3.51163C4.59192 2.43133 5.86205 1.57599 7.322 0.945592C8.78195 0.315197 10.3424 0 12.0033 0C13.6544 0 15.2046 0.310307 16.6539 0.930921C18.1032 1.55065 19.3711 2.39532 20.4576 3.46495C21.545 4.53546 22.4057 5.78825 23.0396 7.22331C23.6745 8.65925 23.9946 10.2015 23.9999 11.8499C24.0043 12.956 23.8736 14.0283 23.6078 15.0668C23.3419 16.1062 22.9405 17.1078 22.4035 18.0716C22.279 18.2886 22.11 18.4428 21.8966 18.5344C21.6841 18.626 21.4512 18.6718 21.1978 18.6718H2.80076Z" fill="#2D2D2D"/>
</svg>
