<svg width="25" height="20" viewBox="0 0 25 20" fill="none" xmlns="http://www.w3.org/2000/svg">
<path d="M10.6945 14.2572C11.0964 14.6591 11.621 14.8436 12.2682 14.8107C12.9173 14.7769 13.3966 14.5479 13.706 14.1238L18.8287 6.97651C19.011 6.71333 18.9954 6.47504 18.782 6.26165C18.5686 6.04826 18.3299 6.03226 18.0658 6.21364L10.8945 11.3137C10.4526 11.6107 10.2041 12.0695 10.149 12.6901C10.0939 13.3107 10.2757 13.8331 10.6945 14.2572ZM3.14842 19.3359C2.90213 19.3359 2.6754 19.2732 2.46824 19.1478C2.26018 19.0216 2.08502 18.85 1.94276 18.633C1.41639 17.7252 1.01895 16.7659 0.750433 15.7549C0.481915 14.744 0.347656 13.7148 0.347656 12.6674C0.347656 11.0065 0.662854 9.44608 1.29325 7.98612C1.92364 6.52617 2.77899 5.25604 3.85928 4.17575C4.93958 3.09545 6.2097 2.24011 7.66966 1.60972C9.12961 0.979321 10.69 0.664124 12.3509 0.664124C14.0021 0.664124 15.5523 0.97443 17.0015 1.59504C18.4508 2.21477 19.7187 3.05944 20.8052 4.12907C21.8927 5.19958 22.7533 6.45237 23.3873 7.88743C24.0221 9.32338 24.3422 10.8656 24.3475 12.514C24.352 13.6201 24.2213 14.6924 23.9554 15.7309C23.6896 16.7703 23.2881 17.7719 22.7511 18.7357C22.6266 18.9527 22.4577 19.1069 22.2443 19.1985C22.0318 19.2901 21.7988 19.3359 21.5454 19.3359H3.14842Z" fill="#71503D"/>
</svg>
