<svg width="25" height="24" viewBox="0 0 25 24" fill="none" xmlns="http://www.w3.org/2000/svg">
<path d="M13.2235 0.254822C13.3098 0.170912 13.4121 0.10516 13.5242 0.0614546C13.6364 0.0177496 13.7561 -0.00302042 13.8765 0.00037313C16.6272 0.0835104 19.2424 1.21337 21.1883 3.1593C23.1343 5.10523 24.2641 7.72049 24.3473 10.4712C24.3508 10.5916 24.3301 10.7115 24.2865 10.8238C24.2428 10.9361 24.1771 11.0384 24.0931 11.1248C24.0092 11.2113 23.9088 11.2799 23.7978 11.3268C23.6868 11.3737 23.5676 11.3978 23.4471 11.3978H13.85C13.6113 11.3978 13.3823 11.3029 13.2135 11.1341C13.0447 10.9653 12.9499 10.7363 12.9499 10.4976V0.900546C12.95 0.78008 12.9742 0.660856 13.0212 0.549938C13.0682 0.439021 13.137 0.338667 13.2235 0.254822ZM11.1495 3.33702C11.1495 3.21202 11.1235 3.0884 11.0731 2.97402C11.0227 2.85965 10.949 2.75702 10.8568 2.67267C10.7645 2.58833 10.6557 2.52413 10.5373 2.48414C10.4189 2.44416 10.2934 2.42928 10.1689 2.44044C8.12455 2.62684 6.17559 3.39193 4.55037 4.6461C2.92515 5.90027 1.69096 7.59159 0.992367 9.52194C0.29377 11.4523 0.159698 13.5417 0.605852 15.5455C1.05201 17.5493 2.05991 19.3845 3.51151 20.8361C4.96311 22.2877 6.7983 23.2956 8.8021 23.7418C10.8059 24.1879 12.8954 24.0539 14.8257 23.3553C16.7561 22.6567 18.4474 21.4225 19.7015 19.7973C20.9557 18.172 21.7208 16.2231 21.9072 14.1787C21.9184 14.0542 21.9035 13.9288 21.8635 13.8103C21.8235 13.6919 21.7593 13.5831 21.675 13.4909C21.5906 13.3986 21.488 13.3249 21.3736 13.2745C21.2592 13.2241 21.1356 13.1981 21.0106 13.1981H11.1495V3.33702Z" fill="#71503D"/>
</svg>
