<svg width="25" height="24" viewBox="0 0 25 24" fill="none" xmlns="http://www.w3.org/2000/svg">
<path d="M13.2235 0.254807C13.3098 0.170897 13.4121 0.105144 13.5242 0.0614393C13.6364 0.0177343 13.7561 -0.00303568 13.8765 0.000357872C16.6272 0.0834952 19.2424 1.21336 21.1883 3.15928C23.1343 5.10521 24.2641 7.72047 24.3473 10.4712C24.3508 10.5916 24.3301 10.7115 24.2865 10.8238C24.2428 10.936 24.1771 11.0384 24.0931 11.1248C24.0092 11.2112 23.9088 11.2799 23.7978 11.3268C23.6868 11.3737 23.5676 11.3978 23.4471 11.3978H13.85C13.6113 11.3978 13.3823 11.3029 13.2135 11.1341C13.0447 10.9653 12.9499 10.7363 12.9499 10.4976V0.900531C12.95 0.780065 12.9742 0.660841 13.0212 0.549923C13.0682 0.439006 13.137 0.338652 13.2235 0.254807ZM11.1495 3.337C11.1495 3.21201 11.1235 3.08839 11.0731 2.97401C11.0227 2.85963 10.949 2.757 10.8568 2.67266C10.7645 2.58832 10.6557 2.52411 10.5373 2.48413C10.4189 2.44414 10.2934 2.42926 10.1689 2.44043C8.12455 2.62682 6.17559 3.39192 4.55037 4.64609C2.92515 5.90026 1.69096 7.59157 0.992367 9.52192C0.29377 11.4523 0.159698 13.5417 0.605852 15.5455C1.05201 17.5493 2.05991 19.3845 3.51151 20.8361C4.96311 22.2877 6.7983 23.2956 8.8021 23.7418C10.8059 24.1879 12.8954 24.0539 14.8257 23.3553C16.7561 22.6567 18.4474 21.4225 19.7015 19.7973C20.9557 18.172 21.7208 16.2231 21.9072 14.1787C21.9184 14.0542 21.9035 13.9287 21.8635 13.8103C21.8235 13.6919 21.7593 13.5831 21.675 13.4909C21.5906 13.3986 21.488 13.3249 21.3736 13.2745C21.2592 13.2241 21.1356 13.1981 21.0106 13.1981H11.1495V3.337Z" fill="#7B0C42"/>
</svg>
