<svg width="24" height="24" viewBox="0 0 24 24" fill="none" xmlns="http://www.w3.org/2000/svg">
<path d="M12.8759 0.254807C12.9622 0.170897 13.0644 0.105144 13.1766 0.0614393C13.2887 0.0177343 13.4085 -0.00303568 13.5288 0.000357872C16.2795 0.0834952 18.8948 1.21336 20.8407 3.15928C22.7866 5.10521 23.9165 7.72047 23.9996 10.4712C24.0031 10.5916 23.9825 10.7115 23.9388 10.8238C23.8952 10.936 23.8294 11.0384 23.7455 11.1248C23.6615 11.2112 23.5611 11.2799 23.4501 11.3268C23.3392 11.3737 23.2199 11.3978 23.0994 11.3978H13.5024C13.2637 11.3978 13.0347 11.3029 12.8659 11.1341C12.6971 10.9653 12.6022 10.7363 12.6022 10.4976V0.900531C12.6023 0.780065 12.6266 0.660841 12.6736 0.549923C12.7206 0.439006 12.7894 0.338652 12.8759 0.254807ZM10.8019 3.337C10.8019 3.21201 10.7758 3.08839 10.7254 2.97401C10.675 2.85963 10.6014 2.757 10.5091 2.67266C10.4169 2.58832 10.3081 2.52411 10.1897 2.48413C10.0712 2.44414 9.94577 2.42926 9.82128 2.44043C7.77689 2.62682 5.82794 3.39192 4.20272 4.64609C2.5775 5.90026 1.34331 7.59157 0.64471 9.52192C-0.0538858 11.4523 -0.187959 13.5417 0.258196 15.5455C0.70435 17.5493 1.71226 19.3845 3.16386 20.8361C4.61546 22.2877 6.45064 23.2956 8.45445 23.7418C10.4582 24.1879 12.5477 24.0539 14.478 23.3553C16.4084 22.6567 18.0997 21.4225 19.3539 19.7973C20.6081 18.172 21.3731 16.2231 21.5595 14.1787C21.5707 14.0542 21.5558 13.9287 21.5158 13.8103C21.4759 13.6919 21.4117 13.5831 21.3273 13.4909C21.243 13.3986 21.1403 13.3249 21.026 13.2745C20.9116 13.2241 20.788 13.1981 20.663 13.1981H10.8019V3.337Z" fill="#2D2D2D"/>
</svg>
