<svg width="25" height="26" viewBox="0 0 25 26" fill="none" xmlns="http://www.w3.org/2000/svg">
<path d="M10.6421 1.55556L5.94319 9.23555C5.42529 10.0692 6.03161 11.1556 7.01687 11.1556H16.4021C17.3874 11.1556 17.9937 10.0692 17.4758 9.23555L12.7895 1.55556C12.6778 1.37068 12.5203 1.21776 12.3322 1.11162C12.1441 1.00548 11.9318 0.949707 11.7158 0.949707C11.4998 0.949707 11.2875 1.00548 11.0994 1.11162C10.9113 1.21776 10.7538 1.37068 10.6421 1.55556Z" fill="#7B0C42"/>
<path d="M18.6647 25.0503C21.804 25.0503 24.3489 22.5054 24.3489 19.3661C24.3489 16.2268 21.804 13.6819 18.6647 13.6819C15.5254 13.6819 12.9805 16.2268 12.9805 19.3661C12.9805 22.5054 15.5254 25.0503 18.6647 25.0503Z" fill="#7B0C42"/>
<path d="M1.61081 24.4187H9.18976C9.8845 24.4187 10.4529 23.8503 10.4529 23.1556V15.5766C10.4529 14.8819 9.8845 14.3135 9.18976 14.3135H1.61081C0.916077 14.3135 0.347656 14.8819 0.347656 15.5766V23.1556C0.347656 23.8503 0.916077 24.4187 1.61081 24.4187Z" fill="#7B0C42"/>
</svg>
