<svg width="24" height="25" viewBox="0 0 24 25" fill="none" xmlns="http://www.w3.org/2000/svg">
<path d="M10.2945 0.605848L5.59553 8.28585C5.07764 9.11953 5.68395 10.2058 6.66921 10.2058H16.0545C17.0397 10.2058 17.6461 9.11953 17.1282 8.28585L12.4418 0.605848C12.3302 0.420968 12.1727 0.268053 11.9846 0.161912C11.7965 0.0557707 11.5841 0 11.3682 0C11.1522 0 10.9399 0.0557707 10.7518 0.161912C10.5636 0.268053 10.4061 0.420968 10.2945 0.605848Z" fill="#023F80"/>
<path d="M18.317 24.1006C21.4563 24.1006 24.0012 21.5557 24.0012 18.4164C24.0012 15.2771 21.4563 12.7322 18.317 12.7322C15.1777 12.7322 12.6328 15.2771 12.6328 18.4164C12.6328 21.5557 15.1777 24.1006 18.317 24.1006Z" fill="#023F80"/>
<path d="M1.26316 23.469H8.8421C9.53684 23.469 10.1053 22.9006 10.1053 22.2059V14.6269C10.1053 13.9322 9.53684 13.3637 8.8421 13.3637H1.26316C0.568421 13.3637 0 13.9322 0 14.6269V22.2059C0 22.9006 0.568421 23.469 1.26316 23.469Z" fill="#023F80"/>
</svg>
