<svg width="25" height="26" viewBox="0 0 25 26" fill="none" xmlns="http://www.w3.org/2000/svg">
<path d="M10.6436 1.55556L5.94465 9.23555C5.42676 10.0692 6.03307 11.1556 7.01834 11.1556H16.4036C17.3889 11.1556 17.9952 10.0692 17.4773 9.23555L12.791 1.55556C12.6793 1.37068 12.5218 1.21776 12.3337 1.11162C12.1456 1.00548 11.9333 0.949707 11.7173 0.949707C11.5013 0.949707 11.289 1.00548 11.1009 1.11162C10.9128 1.21776 10.7553 1.37068 10.6436 1.55556Z" fill="#71503D"/>
<path d="M18.6632 25.0503C21.8025 25.0503 24.3474 22.5054 24.3474 19.3661C24.3474 16.2268 21.8025 13.6819 18.6632 13.6819C15.5239 13.6819 12.979 16.2268 12.979 19.3661C12.979 22.5054 15.5239 25.0503 18.6632 25.0503Z" fill="#71503D"/>
<path d="M1.61081 24.4187H9.18976C9.8845 24.4187 10.4529 23.8503 10.4529 23.1556V15.5766C10.4529 14.8819 9.8845 14.3134 9.18976 14.3134H1.61081C0.916077 14.3134 0.347656 14.8819 0.347656 15.5766V23.1556C0.347656 23.8503 0.916077 24.4187 1.61081 24.4187Z" fill="#71503D"/>
</svg>
