<svg width="25" height="24" viewBox="0 0 25 24" fill="none" xmlns="http://www.w3.org/2000/svg">
<path d="M12.3479 17.3333C11.6146 17.3333 10.987 17.0724 10.4652 16.5507C9.94346 16.0289 9.68212 15.4009 9.68123 14.6667C9.68035 13.9324 9.94168 13.3049 10.4652 12.784C10.9888 12.2631 11.6163 12.0018 12.3479 12C13.0795 11.9982 13.7075 12.2596 14.2319 12.784C14.7563 13.3084 15.0172 13.936 15.0146 14.6667C15.0119 15.3973 14.751 16.0253 14.2319 16.5507C13.7128 17.076 13.0848 17.3369 12.3479 17.3333ZM6.18123 5.33333H18.5146L20.2146 1.93333C20.4368 1.48889 20.4199 1.05556 20.1639 0.633333C19.9079 0.211111 19.5248 0 19.0146 0H5.68123C5.17012 0 4.78701 0.211111 4.5319 0.633333C4.27679 1.05556 4.2599 1.48889 4.48123 1.93333L6.18123 5.33333ZM7.5479 24H17.1479C19.1479 24 20.8479 23.3058 22.2479 21.9173C23.6479 20.5289 24.3479 18.8231 24.3479 16.8C24.3479 15.9556 24.2035 15.1333 23.9146 14.3333C23.6257 13.5333 23.2146 12.8111 22.6812 12.1667L19.2146 8H5.48123L2.01457 12.1667C1.48123 12.8111 1.07012 13.5333 0.781234 14.3333C0.492345 15.1333 0.3479 15.9556 0.3479 16.8C0.3479 18.8222 1.04257 20.528 2.4319 21.9173C3.82123 23.3067 5.52657 24.0009 7.5479 24Z" fill="#7B0C42"/>
</svg>
