<svg width="24" height="24" viewBox="0 0 24 24" fill="none" xmlns="http://www.w3.org/2000/svg">
<path d="M13.2521 0.733586C12.7827 0.264017 12.146 0.000141803 11.482 0H2.50371C1.83968 0 1.20285 0.263783 0.733319 0.733319C0.263783 1.20285 0 1.83968 0 2.50371V11.482C0.000141803 12.146 0.264017 12.7827 0.733586 13.2521L10.7484 23.2669C11.2179 23.7363 11.8546 24 12.5185 24C13.1824 24 13.8191 23.7363 14.2887 23.2669L23.2669 14.2887C23.7363 13.8191 24 13.1824 24 12.5185C24 11.8546 23.7363 11.2179 23.2669 10.7484L13.2521 0.733586ZM6.25927 8.76297C5.59508 8.76281 4.95816 8.4988 4.48862 8.02903C4.01908 7.55926 3.75539 6.92221 3.75556 6.25802C3.75573 5.59383 4.01973 4.9569 4.48951 4.48737C4.95928 4.01783 5.59633 3.75414 6.26052 3.75431C6.92471 3.75447 7.56163 4.01848 8.03117 4.48825C8.5007 4.95802 8.76439 5.59508 8.76423 6.25927C8.76406 6.92346 8.50005 7.56038 8.03028 8.02992C7.56051 8.49945 6.92346 8.76314 6.25927 8.76297Z" fill="#71503D"/>
</svg>
