<svg width="21" height="24" viewBox="0 0 21 24" fill="none" xmlns="http://www.w3.org/2000/svg">
<path d="M20.3478 15.04V16.5478C20.3478 17.4522 19.9245 18.2255 19.3367 18.8333C18.7556 19.4355 17.9667 19.9266 17.079 20.3155C15.299 21.0933 12.919 21.5478 10.3478 21.5478C7.77673 21.5478 5.39673 21.0944 3.61673 20.3155C2.72895 19.9266 1.94006 19.4355 1.35895 18.8333C0.820062 18.2778 0.420061 17.58 0.356728 16.7711L0.347839 16.5478V15.04C0.864136 15.3348 1.41747 15.5922 2.00784 15.8122C4.2634 16.6466 7.2134 17.1122 10.3478 17.1122C13.4823 17.1122 16.4323 16.6466 18.6878 15.8122C19.1308 15.6478 19.5527 15.4615 19.9534 15.2533L20.3478 15.04ZM0.347839 8.92887C0.864136 9.22368 1.41747 9.48109 2.00784 9.70109C4.2634 10.5355 7.2134 11.0011 10.3478 11.0011C13.4823 11.0011 16.4323 10.5355 18.6878 9.70109C19.2615 9.48979 19.8167 9.2315 20.3478 8.92887V12.3789C19.6103 12.9488 18.7906 13.4036 17.9167 13.7278C15.9667 14.45 13.2901 14.8911 10.3478 14.8911C7.40673 14.8911 4.73006 14.45 2.77895 13.7278C1.90507 13.4036 1.08539 12.9488 0.347839 12.3789V8.92887ZM10.3478 0.436646C12.919 0.436646 15.299 0.889979 17.079 1.66887C17.9667 2.05776 18.7556 2.54887 19.3367 3.15109C19.8756 3.70665 20.2756 4.40442 20.339 5.21331L20.3478 5.43665V6.26776C19.6103 6.83766 18.7906 7.29245 17.9167 7.61664C15.9667 8.33887 13.2901 8.77998 10.3478 8.77998C7.40673 8.77998 4.73006 8.33887 2.77895 7.61664C2.02783 7.33759 1.31628 6.96183 0.662284 6.49887L0.347839 6.26776V5.43665C0.347839 4.5322 0.771173 3.75887 1.35895 3.15109C1.94006 2.54887 2.72895 2.05776 3.61673 1.66887C5.39673 0.89109 7.77673 0.436646 10.3478 0.436646Z" fill="#7B0C42"/>
</svg>
