<svg width="20" height="24" viewBox="0 0 20 24" fill="none" xmlns="http://www.w3.org/2000/svg">
<path d="M20 14.6033V16.1111C20 17.0156 19.5767 17.7889 18.9889 18.3967C18.4078 18.9989 17.6189 19.49 16.7311 19.8789C14.9511 20.6567 12.5711 21.1111 10 21.1111C7.42889 21.1111 5.04889 20.6578 3.26889 19.8789C2.38111 19.49 1.59222 18.9989 1.01111 18.3967C0.472222 17.8411 0.0722221 17.1433 0.00888877 16.3344L0 16.1111V14.6033C0.516296 14.8981 1.06963 15.1556 1.66 15.3756C3.91556 16.21 6.86556 16.6756 10 16.6756C13.1344 16.6756 16.0844 16.21 18.34 15.3756C18.783 15.2111 19.2048 15.0248 19.6056 14.8167L20 14.6033ZM0 8.49222C0.516296 8.78704 1.06963 9.04444 1.66 9.26444C3.91556 10.0989 6.86556 10.5644 10 10.5644C13.1344 10.5644 16.0844 10.0989 18.34 9.26444C18.9136 9.05314 19.4689 8.79486 20 8.49222V11.9422C19.2625 12.5121 18.4428 12.9669 17.5689 13.2911C15.6189 14.0133 12.9422 14.4544 10 14.4544C7.05889 14.4544 4.38222 14.0133 2.43111 13.2911C1.55723 12.9669 0.737549 12.5121 0 11.9422V8.49222ZM10 0C12.5711 0 14.9511 0.453334 16.7311 1.23222C17.6189 1.62111 18.4078 2.11222 18.9889 2.71444C19.5278 3.27 19.9278 3.96778 19.9911 4.77667L20 5V5.83111C19.2625 6.40101 18.4428 6.85581 17.5689 7.18C15.6189 7.90222 12.9422 8.34333 10 8.34333C7.05889 8.34333 4.38222 7.90222 2.43111 7.18C1.67999 6.90094 0.968444 6.52519 0.314444 6.06222L0 5.83111V5C0 4.09556 0.423333 3.32222 1.01111 2.71444C1.59222 2.11222 2.38111 1.62111 3.26889 1.23222C5.04889 0.454445 7.42889 0 10 0Z" fill="#71503D"/>
</svg>
