<svg width="24" height="27" viewBox="0 0 24 27" fill="none" xmlns="http://www.w3.org/2000/svg">
<path d="M6.66797 7.66667V6.33333C6.66797 4.91885 7.22987 3.56229 8.23007 2.5621C9.23026 1.5619 10.5868 1 12.0013 1C13.4158 1 14.7723 1.5619 15.7725 2.5621C16.7727 3.56229 17.3346 4.91885 17.3346 6.33333V7.66667" stroke="#2D2D2D" stroke-width="2" stroke-linecap="round"/>
<path fill-rule="evenodd" clip-rule="evenodd" d="M0.781333 7.11465C-7.94729e-08 7.89598 0 9.15198 0 11.6666V15.6666C0 20.6946 -1.58946e-07 23.2093 1.56267 24.7706C3.12533 26.332 5.63867 26.3333 10.6667 26.3333H13.3333C18.3613 26.3333 20.876 26.3333 22.4373 24.7706C23.9987 23.208 24 20.6946 24 15.6666V11.6666C24 9.15198 24 7.89598 23.2187 7.11465C22.4373 6.33331 21.1813 6.33331 18.6667 6.33331H5.33333C2.81867 6.33331 1.56267 6.33331 0.781333 7.11465ZM9.33333 13C9.33333 12.6464 9.19286 12.3072 8.94281 12.0572C8.69276 11.8071 8.35362 11.6666 8 11.6666C7.64638 11.6666 7.30724 11.8071 7.05719 12.0572C6.80714 12.3072 6.66667 12.6464 6.66667 13V15.6666C6.66667 16.0203 6.80714 16.3594 7.05719 16.6095C7.30724 16.8595 7.64638 17 8 17C8.35362 17 8.69276 16.8595 8.94281 16.6095C9.19286 16.3594 9.33333 16.0203 9.33333 15.6666V13ZM17.3333 13C17.3333 12.6464 17.1929 12.3072 16.9428 12.0572C16.6928 11.8071 16.3536 11.6666 16 11.6666C15.6464 11.6666 15.3072 11.8071 15.0572 12.0572C14.8071 12.3072 14.6667 12.6464 14.6667 13V15.6666C14.6667 16.0203 14.8071 16.3594 15.0572 16.6095C15.3072 16.8595 15.6464 17 16 17C16.3536 17 16.6928 16.8595 16.9428 16.6095C17.1929 16.3594 17.3333 16.0203 17.3333 15.6666V13Z" fill="#2D2D2D"/>
</svg>
