<svg width="24" height="27" viewBox="0 0 24 27" fill="none" xmlns="http://www.w3.org/2000/svg">
<path d="M6.66602 7.66667V6.33333C6.66602 4.91885 7.22792 3.56229 8.22811 2.5621C9.22831 1.5619 10.5849 1 11.9993 1C13.4138 1 14.7704 1.5619 15.7706 2.5621C16.7708 3.56229 17.3327 4.91885 17.3327 6.33333V7.66667" stroke="#023F80" stroke-width="2" stroke-linecap="round"/>
<path d="M0.5 11.6666C0.5 10.3952 0.501063 9.49222 0.593203 8.80731C0.683395 8.13687 0.852531 7.75056 1.13489 7.4682C1.41724 7.18584 1.80356 7.01671 2.474 6.92652C3.15891 6.83438 4.06185 6.83331 5.33333 6.83331H18.6667C19.9381 6.83331 20.8411 6.83438 21.526 6.92652C22.1964 7.01671 22.5828 7.18584 22.8651 7.4682C23.1475 7.75056 23.3166 8.13687 23.4068 8.80731C23.4989 9.49222 23.5 10.3952 23.5 11.6666V15.6666C23.5 18.1947 23.4986 20.0404 23.3086 21.4514C23.1206 22.8481 22.7561 23.7442 22.0836 24.4172C21.4114 25.0901 20.5156 25.4546 19.1187 25.6424C17.7074 25.8323 15.8615 25.8333 13.3333 25.8333H10.6667C8.13861 25.8333 6.29295 25.8319 4.88188 25.642C3.48518 25.4539 2.58911 25.0894 1.91607 24.4169C1.24324 23.7447 0.878747 22.8489 0.690871 21.452C0.501063 20.0407 0.5 18.1948 0.5 15.6666V11.6666ZM9.83333 13C9.83333 12.5137 9.64018 12.0474 9.29636 11.7036C8.95255 11.3598 8.48623 11.1666 8 11.1666C7.51377 11.1666 7.04745 11.3598 6.70364 11.7036C6.35982 12.0474 6.16667 12.5137 6.16667 13V15.6666C6.16667 16.1529 6.35982 16.6192 6.70364 16.963C7.04745 17.3068 7.51377 17.5 8 17.5C8.48623 17.5 8.95255 17.3068 9.29636 16.963C9.64018 16.6192 9.83333 16.1529 9.83333 15.6666V13ZM17.8333 13C17.8333 12.5137 17.6402 12.0474 17.2964 11.7036C16.9525 11.3598 16.4862 11.1666 16 11.1666C15.5138 11.1666 15.0475 11.3598 14.7036 11.7036C14.3598 12.0474 14.1667 12.5137 14.1667 13V15.6666C14.1667 16.1529 14.3598 16.6192 14.7036 16.963C15.0475 17.3068 15.5138 17.5 16 17.5C16.4862 17.5 16.9525 17.3068 17.2964 16.963C17.6402 16.6192 17.8333 16.1529 17.8333 15.6666V13Z" fill="#023F80" stroke="#023F80"/>
</svg>
