<svg width="24" height="24" viewBox="0 0 24 24" fill="none" xmlns="http://www.w3.org/2000/svg">
<path d="M17.3644 0.299962C16.3246 -0.0999874 15.1734 -0.0999874 14.1336 0.299962L8.94244 2.29634C8.51786 2.45948 8.15269 2.74747 7.8951 3.12234C7.63751 3.49722 7.49959 3.94136 7.49953 4.39621V6.0461C8.48173 5.92222 9.47932 6.04331 10.4033 6.39858L15.593 8.39646C16.3008 8.66816 16.9095 9.14801 17.339 9.77271C17.7685 10.3974 17.9986 11.1376 17.9989 11.8957V19.0653C17.9989 19.3665 17.9627 19.6667 17.8909 19.9592L22.5571 18.1653C22.9817 18.0022 23.3468 17.7142 23.6044 17.3393C23.862 16.9645 23.9999 16.5203 24 16.0655V4.39621C23.9999 3.94136 23.862 3.49722 23.6044 3.12234C23.3468 2.74747 22.9817 2.45948 22.5571 2.29634L17.3644 0.299962ZM20.1662 3.53076C20.2582 3.4954 20.3563 3.47851 20.4548 3.48105C20.5533 3.48358 20.6504 3.5055 20.7404 3.54554C20.8304 3.58559 20.9117 3.64297 20.9796 3.71442C21.0474 3.78588 21.1006 3.87 21.1359 3.96198C21.1713 4.05397 21.1882 4.15202 21.1856 4.25053C21.1831 4.34904 21.1612 4.44609 21.1211 4.53614C21.0811 4.62618 21.0237 4.70746 20.9523 4.77532C20.8808 4.84319 20.7967 4.89632 20.7047 4.93167L16.556 6.52607C16.0361 6.72605 15.4605 6.72605 14.9406 6.52607L10.7918 4.93167C10.6061 4.86007 10.4563 4.7176 10.3756 4.53561C10.2949 4.35361 10.2897 4.14701 10.3614 3.96123C10.433 3.77546 10.5754 3.62574 10.7574 3.54501C10.9394 3.46428 11.146 3.45916 11.3318 3.53076L15.479 5.12666C15.6528 5.1937 15.8453 5.1937 16.019 5.12666L20.1662 3.53076ZM6.63409 7.79949C7.67388 7.39954 8.82508 7.39954 9.86488 7.79949L15.0561 9.79587C15.926 10.1303 16.4975 10.9658 16.4975 11.8957V19.0653C16.4975 19.52 16.3598 19.964 16.1025 20.3388C15.8452 20.7137 15.4804 21.0018 15.0561 21.1652L9.86488 23.1615C8.82508 23.5615 7.67388 23.5615 6.63409 23.1615L1.44291 21.1667C1.01833 21.0035 0.653163 20.7155 0.395572 20.3407C0.13798 19.9658 6.021e-05 19.5216 0 19.0668V11.8972C6.021e-05 11.4424 0.13798 10.9982 0.395572 10.6234C0.653163 10.2485 1.01833 9.96051 1.44291 9.79737L6.63409 7.79949ZM13.6356 12.1717C13.5642 11.9862 13.422 11.8366 13.2403 11.7559C13.0586 11.6752 12.8523 11.6699 12.6667 11.7412L8.24948 13.4406L3.83076 11.7412C3.7383 11.703 3.63911 11.6836 3.53904 11.6843C3.43898 11.6849 3.34005 11.7056 3.2481 11.7451C3.15615 11.7845 3.07302 11.842 3.00363 11.9141C2.93423 11.9862 2.87997 12.0715 2.84403 12.1649C2.8081 12.2583 2.79121 12.3579 2.79438 12.4579C2.79755 12.558 2.8207 12.6563 2.86248 12.7473C2.90425 12.8382 2.9638 12.9198 3.03762 12.9874C3.11143 13.055 3.19803 13.1071 3.29229 13.1407L7.49953 14.7591V18.4938C7.49953 18.6927 7.57854 18.8835 7.71919 19.0241C7.85983 19.1648 8.05058 19.2438 8.24948 19.2438C8.44838 19.2438 8.63914 19.1648 8.77978 19.0241C8.92042 18.8835 8.99944 18.6927 8.99944 18.4938V14.7591L13.2052 13.1407C13.3907 13.0692 13.5403 12.927 13.621 12.7453C13.7017 12.5636 13.707 12.3573 13.6356 12.1717Z" fill="#71503D"/>
</svg>
