<svg width="24" height="27" viewBox="0 0 24 27" fill="none" xmlns="http://www.w3.org/2000/svg">
<path d="M12.7122 25.5095L12.699 25.5119L12.6138 25.5539L12.5898 25.5587L12.573 25.5539L12.4878 25.5119C12.475 25.5079 12.4654 25.5099 12.459 25.5179L12.4542 25.5299L12.4338 26.0435L12.4398 26.0675L12.4518 26.0831L12.5766 26.1719L12.5946 26.1767L12.609 26.1719L12.7338 26.0831L12.7482 26.0639L12.753 26.0435L12.7326 25.5311C12.7294 25.5183 12.7226 25.5111 12.7122 25.5095ZM13.0302 25.3739L13.0146 25.3763L12.7926 25.4879L12.7806 25.4999L12.777 25.5131L12.7986 26.0291L12.8046 26.0435L12.8142 26.0519L13.0554 26.1635C13.0706 26.1675 13.0822 26.1643 13.0902 26.1539L13.095 26.1371L13.0542 25.4003C13.0502 25.3859 13.0422 25.3771 13.0302 25.3739ZM12.1722 25.3763C12.1669 25.3731 12.1606 25.3721 12.1546 25.3734C12.1485 25.3748 12.1432 25.3784 12.1398 25.3835L12.1326 25.4003L12.0918 26.1371C12.0926 26.1515 12.0994 26.1611 12.1122 26.1659L12.1302 26.1635L12.3714 26.0519L12.3834 26.0423L12.3882 26.0291L12.4086 25.5131L12.405 25.4987L12.393 25.4867L12.1722 25.3763Z" fill="#023F80"/>
<path d="M12 0C13.0752 0 14.1168 0.1416 15.108 0.4068L12.5568 2.9568C12.3633 3.15112 12.1925 3.36692 12.048 3.6H12C10.3386 3.6 8.71458 4.09265 7.33321 5.01566C5.95184 5.93866 4.87519 7.25056 4.23941 8.78546C3.60364 10.3204 3.43729 12.0093 3.7614 13.6388C4.08552 15.2682 4.88554 16.7649 6.0603 17.9397C7.23506 19.1145 8.7318 19.9145 10.3612 20.2386C11.9907 20.5627 13.6796 20.3964 15.2145 19.7606C16.7494 19.1248 18.0613 18.0482 18.9843 16.6668C19.9073 15.2854 20.4 13.6614 20.4 12V11.952C20.632 11.808 20.846 11.638 21.042 11.442L23.5932 8.892C23.8584 9.8832 24 10.9248 24 12C24 18.6276 18.6276 24 12 24C5.3724 24 0 18.6276 0 12C0 5.3724 5.3724 0 12 0ZM11.5032 6.0204C11.5032 7.0416 11.4528 8.0772 11.508 9.0972L10.86 9.7452C10.6371 9.96811 10.4603 10.2327 10.3396 10.524C10.219 10.8152 10.1569 11.1274 10.1569 11.4426C10.1569 11.7578 10.219 12.07 10.3396 12.3612C10.4603 12.6525 10.6371 12.9171 10.86 13.14C11.0829 13.3629 11.3475 13.5397 11.6388 13.6604C11.93 13.781 12.2422 13.8431 12.5574 13.8431C12.8726 13.8431 13.1848 13.781 13.476 13.6604C13.7673 13.5397 14.0319 13.3629 14.2548 13.14L14.9028 12.492C15.9228 12.5472 16.9572 12.4968 17.9796 12.4968C17.8848 13.6372 17.4659 14.7267 16.7722 15.6369C16.0785 16.547 15.139 17.2398 14.0646 17.6335C12.9901 18.0272 11.8254 18.1054 10.7079 17.859C9.59045 17.6125 8.56675 17.0516 7.75758 16.2424C6.94841 15.4332 6.38751 14.4096 6.14104 13.2921C5.89457 12.1746 5.97281 11.0099 6.36653 9.93544C6.76024 8.86097 7.45302 7.92149 8.36315 7.22781C9.27327 6.53413 10.3628 6.11519 11.5032 6.0204ZM19.8048 0.1524C20.0238 0.243215 20.2111 0.396884 20.3428 0.594011C20.4746 0.791138 20.545 1.02289 20.5452 1.26V3.456H22.74C22.9773 3.45605 23.2093 3.52646 23.4066 3.65832C23.6038 3.79018 23.7576 3.97757 23.8484 4.19681C23.9392 4.41605 23.963 4.65729 23.9167 4.89004C23.8704 5.12278 23.7562 5.33658 23.5884 5.5044L19.344 9.744C19.119 9.96906 18.8138 10.0955 18.4956 10.0956H15.6L13.4064 12.2904C13.1812 12.5156 12.8758 12.6421 12.5574 12.6421C12.239 12.6421 11.9336 12.5156 11.7084 12.2904C11.4832 12.0652 11.3567 11.7598 11.3567 11.4414C11.3567 11.123 11.4832 10.8176 11.7084 10.5924L13.9032 8.4V5.5032C13.9031 5.34542 13.9341 5.18917 13.9944 5.04339C14.0547 4.8976 14.1432 4.76515 14.2548 4.6536L18.4968 0.4116C18.6646 0.243681 18.8785 0.12931 19.1113 0.0829577C19.3441 0.0366053 19.5855 0.0603541 19.8048 0.1512" fill="#023F80"/>
</svg>
