<svg width="25" height="26" viewBox="0 0 25 26" fill="none" xmlns="http://www.w3.org/2000/svg">
<path d="M10.6518 23.3003C9.36427 22.0128 9.36427 20.0815 10.6518 18.7939C11.9393 17.5064 13.8706 17.5064 15.1581 18.7939L16.1238 19.7596L19.1817 16.3798C18.0551 15.736 17.0894 15.736 15.9629 15.736C14.8363 15.5751 13.7097 15.2532 13.7097 14.2876C13.7097 13.3219 14.9972 13.6438 15.9629 11.8735C15.9629 11.8735 20.3083 0.124756 11.2956 0.124756C2.4438 0.124756 6.78921 11.8735 6.78921 11.8735C7.75486 13.4829 9.04239 13.161 9.04239 14.2876C9.04239 15.4142 7.9158 15.4142 6.78921 15.5751C5.01886 15.736 3.40944 15.4142 1.80003 18.3111C0.834386 20.0815 0.351562 25.8753 0.351562 25.8753H13.2269L10.6518 23.3003ZM19.1817 25.8753H22.5614C22.5614 25.8753 22.4005 24.4269 22.2396 22.6565L19.1817 25.8753Z" fill="#C2C2C2"/>
<path d="M16.2814 25.8753C15.7985 25.8753 15.4767 25.7144 15.1548 25.3925L11.9359 22.1737C11.2922 21.5299 11.2922 20.5643 11.9359 19.9205C12.5797 19.2767 13.5454 19.2767 14.1891 19.9205L16.2814 22.0127L21.5924 16.2188C22.2362 15.5751 23.2018 15.5751 23.8456 16.0579C24.4894 16.7017 24.4894 17.6673 24.0065 18.3111L17.5689 25.2316C17.0861 25.7144 16.7642 25.8753 16.2814 25.8753Z" fill="#C2C2C2"/>
</svg>
