<svg width="25" height="24" viewBox="0 0 25 24" fill="none" xmlns="http://www.w3.org/2000/svg">
<path d="M10.6314 14.8547C10.6314 14.4546 10.7 14.0694 10.8269 13.7117H2.91945C2.23737 13.7117 1.58322 13.9826 1.10092 14.4649C0.618612 14.9472 0.347656 15.6014 0.347656 16.2835V17.3339C0.347656 17.9877 0.5534 18.6255 0.93174 19.1581C2.69428 21.6316 5.57926 22.8558 9.48839 22.8558C9.94255 22.8558 10.3834 22.8394 10.8109 22.8067C10.6921 22.4542 10.6315 22.0847 10.6314 21.7128V14.8547ZM9.48839 0.00112915C10.2389 0.00112914 10.9821 0.148954 11.6755 0.436165C12.3689 0.723376 12.9989 1.14435 13.5296 1.67504C14.0603 2.20574 14.4812 2.83577 14.7685 3.52916C15.0557 4.22254 15.2035 4.96571 15.2035 5.71623C15.2035 6.46675 15.0557 7.20992 14.7685 7.90331C14.4812 8.59669 14.0603 9.22672 13.5296 9.75742C12.9989 10.2881 12.3689 10.7091 11.6755 10.9963C10.9821 11.2835 10.2389 11.4313 9.48839 11.4313C7.97265 11.4313 6.51899 10.8292 5.4472 9.75742C4.37541 8.68563 3.77329 7.23197 3.77329 5.71623C3.77329 4.20049 4.37541 2.74683 5.4472 1.67504C6.51899 0.603254 7.97265 0.00112915 9.48839 0.00112915ZM11.7744 14.8547C11.7744 14.2484 12.0153 13.6669 12.444 13.2382C12.8727 12.8095 13.4542 12.5686 14.0605 12.5686H22.0616C22.6679 12.5686 23.2494 12.8095 23.6781 13.2382C24.1068 13.6669 24.3477 14.2484 24.3477 14.8547V21.7128C24.3477 22.3191 24.1068 22.9006 23.6781 23.3293C23.2494 23.758 22.6679 23.9988 22.0616 23.9988H14.0605C13.4542 23.9988 12.8727 23.758 12.444 23.3293C12.0153 22.9006 11.7744 22.3191 11.7744 21.7128V14.8547ZM14.632 15.9977C14.4804 15.9977 14.335 16.0579 14.2279 16.1651C14.1207 16.2723 14.0605 16.4176 14.0605 16.5692C14.0605 16.7208 14.1207 16.8661 14.2279 16.9733C14.335 17.0805 14.4804 17.1407 14.632 17.1407H21.4901C21.6417 17.1407 21.787 17.0805 21.8942 16.9733C22.0014 16.8661 22.0616 16.7208 22.0616 16.5692C22.0616 16.4176 22.0014 16.2723 21.8942 16.1651C21.787 16.0579 21.6417 15.9977 21.4901 15.9977H14.632ZM14.632 19.4268C14.4804 19.4268 14.335 19.487 14.2279 19.5942C14.1207 19.7013 14.0605 19.8467 14.0605 19.9983C14.0605 20.1498 14.1207 20.2952 14.2279 20.4024C14.335 20.5096 14.4804 20.5698 14.632 20.5698H21.4901C21.6417 20.5698 21.787 20.5096 21.8942 20.4024C22.0014 20.2952 22.0616 20.1498 22.0616 19.9983C22.0616 19.8467 22.0014 19.7013 21.8942 19.5942C21.787 19.487 21.6417 19.4268 21.4901 19.4268H14.632Z" fill="#C2C2C2"/>
</svg>
