<svg width="24" height="24" viewBox="0 0 24 24" fill="none" xmlns="http://www.w3.org/2000/svg">
<path d="M21.3333 0H2.66667C1.18667 0 0 1.18667 0 2.66667V21.3333C0 22.0406 0.280951 22.7189 0.781048 23.219C1.28115 23.719 1.95942 24 2.66667 24H21.3333C22.8133 24 24 22.8133 24 21.3333V2.66667C24 1.95942 23.719 1.28115 23.219 0.781048C22.7189 0.280951 22.0406 0 21.3333 0ZM7.77333 5.4C9.08 5.4 10.1333 6.45333 10.1333 7.77333C10.1333 9.08 9.08 10.1333 7.77333 10.1333C6.45333 10.1333 5.4 9.08 5.4 7.77333C5.4 6.45333 6.45333 5.4 7.77333 5.4ZM16.2933 18.6667C14.9867 18.6667 13.9333 17.6 13.9333 16.2933C13.9333 14.9867 14.9867 13.9333 16.2933 13.9333C17.6 13.9333 18.6667 14.9867 18.6667 16.2933C18.6667 17.6 17.6 18.6667 16.2933 18.6667ZM7.33333 18.7067L5.33333 16.7067L16.7067 5.33333L18.7067 7.33333L7.33333 18.7067Z" fill="#C2C2C2"/>
</svg>
