<svg width="25" height="26" viewBox="0 0 25 26" fill="none" xmlns="http://www.w3.org/2000/svg">
<path d="M1.27314 16.3296L1.90673 18.6973C2.64693 21.4608 3.01825 22.8432 3.85772 23.739C4.52028 24.4459 5.37745 24.9405 6.32097 25.1606C7.51706 25.44 8.89942 25.0699 11.6641 24.3297C14.4264 23.5895 15.8088 23.2194 16.7046 22.3799C16.779 22.3097 16.8509 22.2378 16.9203 22.1642C16.5029 22.1266 16.088 22.0652 15.6777 21.9804C14.8247 21.8113 13.8112 21.5392 12.6127 21.2181L12.4816 21.1826L12.4509 21.1753C11.147 20.8248 10.0575 20.5331 9.18741 20.2194C8.27197 19.8885 7.44108 19.4804 6.73396 18.8186C5.76131 17.9073 5.08067 16.7282 4.77807 15.4301C4.55748 14.4877 4.62121 13.5637 4.79278 12.6066C4.95699 11.6887 5.25111 10.5882 5.60405 9.27076L6.2597 6.82712L6.28176 6.74133C3.9288 7.37492 2.68982 7.74992 1.86383 8.52321C1.1561 9.18627 0.660948 10.0444 0.44103 10.9889C0.161617 12.1838 0.531717 13.5661 1.27314 16.3296Z" fill="#C2C2C2"/>
<path fill-rule="evenodd" clip-rule="evenodd" d="M23.424 11.4264L22.7892 13.7941C22.0477 16.5576 21.6776 17.94 20.8382 18.8358C20.1758 19.5431 19.3186 20.0382 18.3749 20.2586C18.2565 20.2864 18.136 20.3076 18.0134 20.3223C16.8921 20.4608 15.5232 20.0944 13.033 19.4277C10.2695 18.6863 8.88712 18.3162 7.99128 17.4767C7.28375 16.814 6.78861 15.9563 6.56847 15.0122C6.28906 13.8161 6.65916 12.435 7.40058 9.67151L8.03417 7.30385L8.33319 6.19477C8.89079 4.15309 9.26579 3.02931 9.98516 2.26092C10.6477 1.55406 11.5049 1.05937 12.4484 0.839346C13.6445 0.559932 15.0269 0.930033 17.7916 1.67146C20.5539 2.41166 21.9362 2.78176 22.8321 3.62C23.5398 4.28306 24.0349 5.14115 24.2549 6.0857C24.5343 7.28179 24.1642 8.66293 23.424 11.4264ZM11.4398 10.3112C11.4711 10.1946 11.5251 10.0853 11.5986 9.98955C11.6721 9.8938 11.7638 9.81347 11.8684 9.75315C11.973 9.69283 12.0884 9.65371 12.2081 9.63802C12.3278 9.62233 12.4495 9.63038 12.5661 9.66171L18.4852 11.2487C18.6049 11.2771 18.7177 11.3292 18.8168 11.402C18.916 11.4747 18.9996 11.5666 19.0626 11.6723C19.1256 11.7779 19.1667 11.8951 19.1836 12.0169C19.2005 12.1388 19.1927 12.2627 19.1608 12.3815C19.1289 12.5003 19.0735 12.6115 18.9978 12.7084C18.9222 12.8054 18.8278 12.8862 18.7204 12.9461C18.6129 13.0059 18.4945 13.0436 18.3723 13.0568C18.25 13.0701 18.1263 13.0587 18.0085 13.0233L12.0893 11.4375C11.8541 11.3743 11.6536 11.2203 11.5318 11.0094C11.41 10.7984 11.3769 10.5465 11.4398 10.3112ZM10.4888 13.8639C10.552 13.6287 10.706 13.4282 10.9169 13.3064C11.1279 13.1846 11.3785 13.1515 11.6138 13.2144L15.1653 14.1666C15.2856 14.1944 15.399 14.2461 15.4989 14.3186C15.5987 14.3911 15.6829 14.483 15.7465 14.5888C15.81 14.6946 15.8516 14.8121 15.8688 14.9343C15.886 15.0565 15.8784 15.1809 15.8464 15.3001C15.8145 15.4193 15.7589 15.5309 15.6829 15.6281C15.6069 15.7254 15.5121 15.8063 15.4042 15.8661C15.2963 15.9259 15.1774 15.9634 15.0547 15.9763C14.9319 15.9892 14.8079 15.9773 14.6898 15.9412L11.1384 14.9902C11.0217 14.9589 10.9124 14.9049 10.8167 14.8314C10.7209 14.7579 10.6406 14.6662 10.5803 14.5616C10.52 14.457 10.4808 14.3416 10.4652 14.2219C10.4495 14.1022 10.4575 13.9805 10.4888 13.8639Z" fill="#C2C2C2"/>
</svg>
