<svg width="25" height="26" viewBox="0 0 25 26" fill="none" xmlns="http://www.w3.org/2000/svg">
<path d="M10.6441 1.55556L5.94514 9.23555C5.42725 10.0692 6.03356 11.1556 7.01882 11.1556H16.4041C17.3894 11.1556 17.9957 10.0692 17.4778 9.23555L12.7915 1.55556C12.6798 1.37068 12.5223 1.21776 12.3342 1.11162C12.1461 1.00548 11.9338 0.949707 11.7178 0.949707C11.5018 0.949707 11.2895 1.00548 11.1014 1.11162C10.9133 1.21776 10.7557 1.37068 10.6441 1.55556Z" fill="#C2C2C2"/>
<path d="M18.6627 25.0503C21.802 25.0503 24.3469 22.5054 24.3469 19.3661C24.3469 16.2268 21.802 13.6819 18.6627 13.6819C15.5234 13.6819 12.9785 16.2268 12.9785 19.3661C12.9785 22.5054 15.5234 25.0503 18.6627 25.0503Z" fill="#C2C2C2"/>
<path d="M1.61081 24.4187H9.18976C9.8845 24.4187 10.4529 23.8503 10.4529 23.1556V15.5766C10.4529 14.8819 9.8845 14.3135 9.18976 14.3135H1.61081C0.916077 14.3135 0.347656 14.8819 0.347656 15.5766V23.1556C0.347656 23.8503 0.916077 24.4187 1.61081 24.4187Z" fill="#C2C2C2"/>
</svg>
