<svg width="25" height="24" viewBox="0 0 25 24" fill="none" xmlns="http://www.w3.org/2000/svg">
<path d="M12.3478 17.3333C11.6145 17.3333 10.987 17.0724 10.4652 16.5507C9.9434 16.0289 9.68206 15.4009 9.68117 14.6667C9.68028 13.9324 9.94162 13.3049 10.4652 12.784C10.9887 12.2631 11.6163 12.0018 12.3478 12C13.0794 11.9982 13.7074 12.2596 14.2318 12.784C14.7563 13.3084 15.0172 13.936 15.0145 14.6667C15.0118 15.3973 14.751 16.0253 14.2318 16.5507C13.7127 17.076 13.0847 17.3369 12.3478 17.3333ZM6.18117 5.33333H18.5145L20.2145 1.93333C20.4367 1.48889 20.4198 1.05556 20.1638 0.633333C19.9078 0.211111 19.5247 0 19.0145 0H5.68117C5.17006 0 4.78695 0.211111 4.53184 0.633333C4.27673 1.05556 4.25984 1.48889 4.48117 1.93333L6.18117 5.33333ZM7.54784 24H17.1478C19.1478 24 20.8478 23.3058 22.2478 21.9173C23.6478 20.5289 24.3478 18.8231 24.3478 16.8C24.3478 15.9556 24.2034 15.1333 23.9145 14.3333C23.6256 13.5333 23.2145 12.8111 22.6812 12.1667L19.2145 8H5.48117L2.01451 12.1667C1.48117 12.8111 1.07006 13.5333 0.781173 14.3333C0.492284 15.1333 0.347839 15.9556 0.347839 16.8C0.347839 18.8222 1.04251 20.528 2.43184 21.9173C3.82117 23.3067 5.52651 24.0009 7.54784 24Z" fill="#C2C2C2"/>
</svg>
