<svg width="25" height="24" viewBox="0 0 25 24" fill="none" xmlns="http://www.w3.org/2000/svg">
<path d="M13.5998 0.733586C13.1304 0.264017 12.4936 0.000141803 11.8297 0H2.85136C2.18734 0 1.55051 0.263783 1.08097 0.733319C0.611439 1.20285 0.347656 1.83968 0.347656 2.50371V11.482C0.347798 12.146 0.611674 12.7827 1.08124 13.2521L11.0961 23.2669C11.5656 23.7363 12.2023 24 12.8662 24C13.5301 24 14.1668 23.7363 14.6363 23.2669L23.6146 14.2887C24.084 13.8191 24.3477 13.1824 24.3477 12.5185C24.3477 11.8546 24.084 11.2179 23.6146 10.7484L13.5998 0.733586ZM6.60692 8.76297C5.94273 8.76281 5.30581 8.4988 4.83628 8.02903C4.36674 7.55926 4.10305 6.92221 4.10322 6.25802C4.10338 5.59383 4.36739 4.9569 4.83716 4.48737C5.30693 4.01783 5.94398 3.75414 6.60818 3.75431C7.27237 3.75447 7.90929 4.01848 8.37882 4.48825C8.84836 4.95802 9.11205 5.59508 9.11188 6.25927C9.11172 6.92346 8.84771 7.56038 8.37794 8.02991C7.90817 8.49945 7.27111 8.76314 6.60692 8.76297Z" fill="#C2C2C2"/>
</svg>
