<svg width="21" height="24" viewBox="0 0 21 24" fill="none" xmlns="http://www.w3.org/2000/svg">
<path d="M20.3479 15.04V16.5478C20.3479 17.4522 19.9246 18.2255 19.3368 18.8333C18.7557 19.4355 17.9668 19.9266 17.079 20.3155C15.299 21.0933 12.919 21.5478 10.3479 21.5478C7.77679 21.5478 5.39679 21.0944 3.61679 20.3155C2.72901 19.9266 1.94012 19.4355 1.35901 18.8333C0.820123 18.2778 0.420123 17.58 0.356789 16.7711L0.3479 16.5478V15.04C0.864197 15.3348 1.41753 15.5922 2.0079 15.8122C4.26346 16.6466 7.21346 17.1122 10.3479 17.1122C13.4823 17.1122 16.4323 16.6466 18.6879 15.8122C19.1309 15.6478 19.5527 15.4615 19.9535 15.2533L20.3479 15.04ZM0.3479 8.92887C0.864197 9.22368 1.41753 9.48109 2.0079 9.70109C4.26346 10.5355 7.21346 11.0011 10.3479 11.0011C13.4823 11.0011 16.4323 10.5355 18.6879 9.70109C19.2615 9.48979 19.8168 9.2315 20.3479 8.92887V12.3789C19.6104 12.9488 18.7907 13.4036 17.9168 13.7278C15.9668 14.45 13.2901 14.8911 10.3479 14.8911C7.40679 14.8911 4.73012 14.45 2.77901 13.7278C1.90513 13.4036 1.08545 12.9488 0.3479 12.3789V8.92887ZM10.3479 0.436646C12.919 0.436646 15.299 0.889979 17.079 1.66887C17.9668 2.05776 18.7557 2.54887 19.3368 3.15109C19.8757 3.70665 20.2757 4.40442 20.339 5.21331L20.3479 5.43665V6.26776C19.6104 6.83766 18.7907 7.29245 17.9168 7.61664C15.9668 8.33887 13.2901 8.77998 10.3479 8.77998C7.40679 8.77998 4.73012 8.33887 2.77901 7.61664C2.02789 7.33759 1.31634 6.96183 0.662345 6.49887L0.3479 6.26776V5.43665C0.3479 4.5322 0.771234 3.75887 1.35901 3.15109C1.94012 2.54887 2.72901 2.05776 3.61679 1.66887C5.39679 0.89109 7.77679 0.436646 10.3479 0.436646Z" fill="#C2C2C2"/>
</svg>
