<svg width="25" height="27" viewBox="0 0 25 27" fill="none" xmlns="http://www.w3.org/2000/svg">
<path d="M7.01367 7.99998V6.66665C7.01367 5.25216 7.57557 3.8956 8.57577 2.89541C9.57596 1.89522 10.9325 1.33331 12.347 1.33331C13.7615 1.33331 15.118 1.89522 16.1182 2.89541C17.1184 3.8956 17.6803 5.25216 17.6803 6.66665V7.99998" stroke="#C2C2C2" stroke-width="2" stroke-linecap="round"/>
<path fill-rule="evenodd" clip-rule="evenodd" d="M1.12899 7.44796C0.347656 8.22929 0.347656 9.48529 0.347656 12V16C0.347656 21.028 0.347656 23.5426 1.91032 25.104C3.47299 26.6653 5.98632 26.6666 11.0143 26.6666H13.681C18.709 26.6666 21.2237 26.6666 22.785 25.104C24.3463 23.5413 24.3477 21.028 24.3477 16V12C24.3477 9.48529 24.3477 8.22929 23.5663 7.44796C22.785 6.66663 21.529 6.66663 19.0143 6.66663H5.68099C3.16632 6.66663 1.91032 6.66663 1.12899 7.44796ZM9.68099 13.3333C9.68099 12.9797 9.54051 12.6405 9.29047 12.3905C9.04042 12.1404 8.70128 12 8.34766 12C7.99403 12 7.6549 12.1404 7.40485 12.3905C7.1548 12.6405 7.01432 12.9797 7.01432 13.3333V16C7.01432 16.3536 7.1548 16.6927 7.40485 16.9428C7.6549 17.1928 7.99403 17.3333 8.34766 17.3333C8.70128 17.3333 9.04042 17.1928 9.29047 16.9428C9.54051 16.6927 9.68099 16.3536 9.68099 16V13.3333ZM17.681 13.3333C17.681 12.9797 17.5405 12.6405 17.2905 12.3905C17.0404 12.1404 16.7013 12 16.3477 12C15.994 12 15.6549 12.1404 15.4048 12.3905C15.1548 12.6405 15.0143 12.9797 15.0143 13.3333V16C15.0143 16.3536 15.1548 16.6927 15.4048 16.9428C15.6549 17.1928 15.994 17.3333 16.3477 17.3333C16.7013 17.3333 17.0404 17.1928 17.2905 16.9428C17.5405 16.6927 17.681 16.3536 17.681 16V13.3333Z" fill="#C2C2C2"/>
</svg>
