<svg width="25" height="24" viewBox="0 0 25 24" fill="none" xmlns="http://www.w3.org/2000/svg">
<path d="M17.7121 0.569188C16.6723 0.169239 15.5211 0.169239 14.4813 0.569188L9.2901 2.56556C8.86552 2.7287 8.50035 3.0167 8.24276 3.39157C7.98517 3.76644 7.84725 4.21059 7.84719 4.66543V6.31533C8.82938 6.19145 9.82697 6.31254 10.751 6.66781L15.9407 8.66568C16.6484 8.93739 17.2572 9.41723 17.6867 10.0419C18.1162 10.6666 18.3463 11.4069 18.3465 12.165V19.3345C18.3466 19.6358 18.3103 19.9359 18.2385 20.2285L22.9047 18.4346C23.3293 18.2714 23.6945 17.9834 23.9521 17.6086C24.2097 17.2337 24.3476 16.7895 24.3477 16.3347V4.66543C24.3476 4.21059 24.2097 3.76644 23.9521 3.39157C23.6945 3.0167 23.3293 2.7287 22.9047 2.56556L17.7121 0.569188ZM20.5139 3.79999C20.6059 3.76463 20.7039 3.74774 20.8024 3.75027C20.901 3.75281 20.998 3.77473 21.0881 3.81477C21.1781 3.85481 21.2594 3.9122 21.3272 3.98365C21.3951 4.0551 21.4482 4.13922 21.4836 4.23121C21.5189 4.32319 21.5358 4.42124 21.5333 4.51976C21.5308 4.61827 21.5088 4.71532 21.4688 4.80536C21.4288 4.89541 21.3714 4.97668 21.2999 5.04455C21.2285 5.11242 21.1443 5.16554 21.0524 5.2009L16.9036 6.7953C16.3837 6.99527 15.8081 6.99527 15.2882 6.7953L11.1395 5.2009C10.9537 5.1293 10.804 4.98683 10.7233 4.80483C10.6425 4.62284 10.6374 4.41623 10.709 4.23046C10.7806 4.04469 10.9231 3.89497 11.1051 3.81424C11.2871 3.73351 11.4937 3.72838 11.6794 3.79999L15.8267 5.39589C16.0004 5.46293 16.1929 5.46293 16.3667 5.39589L20.5139 3.79999ZM6.98174 8.06872C8.02154 7.66877 9.17274 7.66877 10.2125 8.06872L15.4037 10.0651C16.2737 10.3996 16.8451 11.235 16.8451 12.165V19.3345C16.8452 19.7892 16.7075 20.2332 16.4502 20.6081C16.1929 20.9829 15.828 21.271 15.4037 21.4344L10.2125 23.4308C9.17274 23.8307 8.02154 23.8307 6.98174 23.4308L1.79057 21.4359C1.36598 21.2727 1.00082 20.9848 0.743228 20.6099C0.485636 20.235 0.347716 19.7909 0.347656 19.336V12.1665C0.347716 11.7116 0.485636 11.2675 0.743228 10.8926C1.00082 10.5177 1.36598 10.2297 1.79057 10.0666L6.98174 8.06872ZM13.9833 12.4409C13.9118 12.2554 13.7696 12.1058 13.5879 12.0251C13.4063 11.9444 13.1999 11.9391 13.0144 12.0105L8.59714 13.7099L4.17842 12.0105C4.08595 11.9722 3.98677 11.9528 3.8867 11.9535C3.78663 11.9541 3.68771 11.9748 3.59576 12.0143C3.5038 12.0538 3.42068 12.1113 3.35128 12.1834C3.28189 12.2554 3.22763 12.3407 3.19169 12.4341C3.15575 12.5275 3.13887 12.6271 3.14204 12.7272C3.14521 12.8272 3.16836 12.9256 3.21013 13.0165C3.25191 13.1074 3.31146 13.1891 3.38527 13.2566C3.45909 13.3242 3.54568 13.3763 3.63995 13.4099L7.84719 15.0283V18.7631C7.84719 18.962 7.9262 19.1527 8.06684 19.2933C8.20749 19.434 8.39824 19.513 8.59714 19.513C8.79604 19.513 8.98679 19.434 9.12744 19.2933C9.26808 19.1527 9.34709 18.962 9.34709 18.7631V15.0283L13.5528 13.4099C13.7384 13.3384 13.8879 13.1962 13.9687 13.0145C14.0494 12.8328 14.0546 12.6265 13.9833 12.4409Z" fill="#C2C2C2"/>
</svg>
