<svg width="25" height="28" viewBox="0 0 25 28" fill="none" xmlns="http://www.w3.org/2000/svg">
<path d="M12.3477 0.911606C13.4229 0.911606 14.4645 1.05321 15.4557 1.31841L12.9045 3.86841C12.7109 4.06273 12.5402 4.27852 12.3957 4.51161H12.3477C10.6863 4.51161 9.06224 5.00426 7.68087 5.92726C6.29949 6.85027 5.22284 8.16217 4.58707 9.69707C3.95129 11.232 3.78494 12.9209 4.10906 14.5504C4.43318 16.1798 5.2332 17.6765 6.40796 18.8513C7.58272 20.0261 9.07946 20.8261 10.7089 21.1502C12.3383 21.4743 14.0273 21.308 15.5622 20.6722C17.0971 20.0364 18.409 18.9598 19.332 17.5784C20.255 16.197 20.7477 14.573 20.7477 12.9116V12.8636C20.9797 12.7196 21.1937 12.5496 21.3897 12.3536L23.9409 9.80361C24.2061 10.7948 24.3477 11.8364 24.3477 12.9116C24.3477 19.5392 18.9753 24.9116 12.3477 24.9116C5.72006 24.9116 0.347656 19.5392 0.347656 12.9116C0.347656 6.28401 5.72006 0.911606 12.3477 0.911606ZM11.8509 6.93201C11.8509 7.95321 11.8005 8.98881 11.8557 10.0088L11.2077 10.6568C10.9848 10.8797 10.8079 11.1443 10.6873 11.4356C10.5667 11.7268 10.5046 12.039 10.5046 12.3542C10.5046 12.6694 10.5667 12.9816 10.6873 13.2728C10.8079 13.5641 10.9848 13.8287 11.2077 14.0516C11.4306 14.2745 11.6952 14.4513 11.9864 14.572C12.2777 14.6926 12.5898 14.7547 12.9051 14.7547C13.2203 14.7547 13.5324 14.6926 13.8237 14.572C14.1149 14.4513 14.3796 14.2745 14.6025 14.0516L15.2505 13.4036C16.2705 13.4588 17.3049 13.4084 18.3273 13.4084C18.2325 14.5488 17.8135 15.6383 17.1198 16.5485C16.4262 17.4586 15.4867 18.1514 14.4122 18.5451C13.3377 18.9388 12.1731 19.017 11.0556 18.7706C9.9381 18.5241 8.91441 17.9632 8.10524 17.154C7.29606 16.3449 6.73517 15.3212 6.4887 14.2037C6.24223 13.0862 6.32047 11.9215 6.71418 10.847C7.1079 9.77257 7.80068 8.83309 8.7108 8.13942C9.62093 7.44574 10.7104 7.0268 11.8509 6.93201ZM20.1525 1.06401C20.3715 1.15482 20.5587 1.30849 20.6905 1.50562C20.8223 1.70274 20.8927 1.93449 20.8929 2.17161V4.36761H23.0877C23.325 4.36766 23.5569 4.43806 23.7542 4.56992C23.9515 4.70179 24.1053 4.88918 24.1961 5.10842C24.2869 5.32766 24.3106 5.5689 24.2644 5.80164C24.2181 6.03439 24.1038 6.24818 23.9361 6.41601L19.6917 10.6556C19.4667 10.8807 19.1615 11.0071 18.8433 11.0072H15.9477L13.7541 13.202C13.5289 13.4272 13.2235 13.5537 12.9051 13.5537C12.5866 13.5537 12.2812 13.4272 12.0561 13.202C11.8309 12.9768 11.7044 12.6714 11.7044 12.353C11.7044 12.0346 11.8309 11.7292 12.0561 11.504L14.2509 9.31161V6.41481C14.2507 6.25703 14.2817 6.10078 14.3421 5.95499C14.4024 5.80921 14.4909 5.67675 14.6025 5.56521L18.8445 1.32321C19.0123 1.15529 19.2261 1.04092 19.459 0.994563C19.6918 0.948211 19.9331 0.97196 20.1525 1.06281" fill="#C2C2C2"/>
</svg>
