<svg width="68" height="68" viewBox="0 0 68 68" fill="none" xmlns="http://www.w3.org/2000/svg">
<rect width="68" height="68" rx="12" fill="#D7EAFF"/>
<path d="M19.7778 18H30.4444C31.4222 18 32.2222 18.8 32.2222 19.7778V30.4444C32.2222 31.4222 31.4222 32.2222 30.4444 32.2222H19.7778C18.8 32.2222 18 31.4222 18 30.4444V19.7778C18 18.8 18.8 18 19.7778 18ZM37.5556 18H48.2222C49.2 18 50 18.8 50 19.7778V30.4444C50 31.4222 49.2 32.2222 48.2222 32.2222H37.5556C36.5778 32.2222 35.7778 31.4222 35.7778 30.4444V19.7778C35.7778 18.8 36.5778 18 37.5556 18ZM19.7778 35.7778H30.4444C31.4222 35.7778 32.2222 36.5778 32.2222 37.5556V48.2222C32.2222 49.2 31.4222 50 30.4444 50H19.7778C18.8 50 18 49.2 18 48.2222V37.5556C18 36.5778 18.8 35.7778 19.7778 35.7778ZM42.8889 35.7778C41.9111 35.7778 41.1111 36.5778 41.1111 37.5556V41.1111H37.5556C36.5778 41.1111 35.7778 41.9111 35.7778 42.8889C35.7778 43.8667 36.5778 44.6667 37.5556 44.6667H41.1111V48.2222C41.1111 49.2 41.9111 50 42.8889 50C43.8667 50 44.6667 49.2 44.6667 48.2222V44.6667H48.2222C49.2 44.6667 50 43.8667 50 42.8889C50 41.9111 49.2 41.1111 48.2222 41.1111H44.6667V37.5556C44.6667 36.5778 43.8667 35.7778 42.8889 35.7778Z" fill="#023F80"/>
</svg>
