<svg width="68" height="69" viewBox="0 0 68 69" fill="none" xmlns="http://www.w3.org/2000/svg">
<rect y="0.5" width="68" height="68" rx="12" fill="#F6E9DF"/>
<path d="M21.7273 46.7727C21.5455 46.7727 21.3695 46.7327 21.1995 46.6527C21.0295 46.5727 20.8873 46.4764 20.7727 46.3636C20.5 46.1136 20.3636 45.8014 20.3636 45.4268C20.3636 45.0523 20.4886 44.7282 20.7386 44.4545C21.1705 44 21.6877 43.7273 22.2905 43.6364C22.8932 43.5455 23.5009 43.5568 24.1136 43.6705C24.2955 43.7159 24.4659 43.7614 24.625 43.8068C24.7841 43.8523 24.9205 43.8182 25.0341 43.7045C25.1705 43.5682 25.2218 43.3977 25.1882 43.1932C25.1545 42.9886 25.1145 42.7955 25.0682 42.6136C24.9773 42 24.9659 41.3918 25.0341 40.7891C25.1023 40.1864 25.3523 39.6582 25.7841 39.2045C26.2159 38.7509 26.7327 38.4782 27.3345 38.3864C27.9364 38.2945 28.5445 38.3059 29.1591 38.4205C29.3409 38.4659 29.5173 38.5114 29.6882 38.5568C29.8591 38.6023 30.0009 38.5682 30.1136 38.4545C30.25 38.3182 30.2955 38.1477 30.25 37.9432C30.2045 37.7386 30.1591 37.5455 30.1136 37.3636C30.0227 36.75 30.0114 36.1423 30.0795 35.5405C30.1477 34.9386 30.3977 34.41 30.8295 33.9545C31.2614 33.4991 31.7782 33.2264 32.38 33.1364C32.9818 33.0464 33.59 33.0577 34.2045 33.1705C34.3864 33.2159 34.5623 33.2614 34.7323 33.3068C34.9023 33.3523 35.0445 33.3182 35.1591 33.2045C35.2955 33.0682 35.3409 32.8977 35.2955 32.6932C35.25 32.4886 35.2045 32.2955 35.1591 32.1136C35.0682 31.5 35.0623 30.8923 35.1414 30.2905C35.2205 29.6886 35.4764 29.16 35.9091 28.7045C36.3418 28.2491 36.8591 27.9764 37.4609 27.8864C38.0627 27.7964 38.6705 27.8077 39.2841 27.9205C39.4659 27.9659 39.6423 28.0114 39.8132 28.0568C39.9841 28.1023 40.1259 28.0682 40.2386 27.9545C40.375 27.8182 40.4205 27.6477 40.375 27.4432C40.3295 27.2386 40.2841 27.0455 40.2386 26.8636C40.1477 26.25 40.1423 25.6418 40.2223 25.0391C40.3023 24.4364 40.5577 23.9082 40.9886 23.4545C41.4195 23.0009 41.9368 22.7282 42.5405 22.6364C43.1441 22.5445 43.7518 22.5559 44.3636 22.6705C44.5455 22.7159 44.7214 22.7559 44.8914 22.7905C45.0614 22.825 45.2036 22.785 45.3182 22.6705C45.5682 22.3977 45.8809 22.2614 46.2564 22.2614C46.6318 22.2614 46.9555 22.3864 47.2273 22.6364C47.4991 22.8864 47.6355 23.1991 47.6364 23.5745C47.6373 23.95 47.5123 24.2736 47.2614 24.5455C46.8295 25 46.3127 25.2786 45.7109 25.3814C45.1091 25.4841 44.5009 25.4782 43.8864 25.3636C43.7045 25.3182 43.5286 25.2727 43.3586 25.2273C43.1886 25.1818 43.0464 25.2159 42.9318 25.3295C42.7955 25.4659 42.75 25.6364 42.7955 25.8409C42.8409 26.0455 42.8864 26.2386 42.9318 26.4205C43.0227 27.0341 43.0286 27.6423 42.9495 28.245C42.8705 28.8477 42.6145 29.3759 42.1818 29.8295C41.7491 30.2832 41.2323 30.5559 40.6314 30.6477C40.0305 30.7395 39.4223 30.7282 38.8068 30.6136C38.625 30.5682 38.4545 30.5227 38.2955 30.4773C38.1364 30.4318 38 30.4659 37.8864 30.5795C37.75 30.7159 37.6991 30.8864 37.7336 31.0909C37.7682 31.2955 37.8077 31.4886 37.8523 31.6705C37.9432 32.2841 37.9545 32.8923 37.8864 33.495C37.8182 34.0977 37.5682 34.6259 37.1364 35.0795C36.7045 35.5114 36.1877 35.7786 35.5859 35.8814C34.9841 35.9841 34.3759 35.9782 33.7614 35.8636C33.5795 35.8182 33.4091 35.7782 33.25 35.7436C33.0909 35.7091 32.9545 35.7491 32.8409 35.8636C32.7045 36 32.6536 36.165 32.6882 36.3586C32.7227 36.5523 32.7623 36.7395 32.8068 36.9205C32.8977 37.5341 32.9091 38.1423 32.8409 38.745C32.7727 39.3477 32.5227 39.8759 32.0909 40.3295C31.6591 40.7832 31.1364 41.0559 30.5227 41.1477C29.9091 41.2395 29.2955 41.2282 28.6818 41.1136C28.5 41.0682 28.3295 41.0286 28.1705 40.995C28.0114 40.9614 27.875 41.0009 27.7614 41.1136C27.625 41.25 27.5795 41.415 27.625 41.6086C27.6705 41.8023 27.7159 41.9895 27.7614 42.1705C27.8523 42.7841 27.8582 43.3923 27.7791 43.995C27.7 44.5977 27.4441 45.1259 27.0114 45.5795C26.5786 46.0332 26.0618 46.3059 25.4609 46.3977C24.86 46.4895 24.2518 46.4782 23.6364 46.3636C23.4545 46.3182 23.2841 46.2786 23.125 46.245C22.9659 46.2114 22.8295 46.2509 22.7159 46.3636C22.5795 46.5 22.4259 46.6023 22.255 46.6705C22.0841 46.7386 21.9082 46.7727 21.7273 46.7727ZM25.8182 33.1364C23.9318 33.1364 22.3241 32.4718 20.995 31.1427C19.6659 29.8136 19.0009 28.2055 19 26.3182C19 24.4091 19.665 22.7955 20.995 21.4773C22.325 20.1591 23.9327 19.5 25.8182 19.5C27.7273 19.5 29.3409 20.1591 30.6591 21.4773C31.9773 22.7955 32.6364 24.4091 32.6364 26.3182C32.6364 28.2045 31.9773 29.8127 30.6591 31.1427C29.3409 32.4727 27.7273 33.1373 25.8182 33.1364ZM39.4545 49.5C38.7045 49.5 38.0627 49.2332 37.5291 48.6995C36.9955 48.1659 36.7282 47.5236 36.7273 46.7727V39.9545C36.7273 39.2045 36.9945 38.5627 37.5291 38.0291C38.0636 37.4955 38.7055 37.2282 39.4545 37.2273H46.2727C47.0227 37.2273 47.665 37.4945 48.1995 38.0291C48.7341 38.5636 49.0009 39.2055 49 39.9545V46.7727C49 47.5227 48.7332 48.165 48.1995 48.6995C47.6659 49.2341 47.0236 49.5009 46.2727 49.5H39.4545Z" fill="#71503D"/>
</svg>
