<svg width="68" height="68" viewBox="0 0 68 68" fill="none" xmlns="http://www.w3.org/2000/svg">
<rect width="68" height="68" rx="12" fill="#D7EAFF"/>
<path d="M50.1531 19.6607C50.6131 20.3407 50.7047 21.3783 50.3641 22.7691C50.0251 24.1518 49.2751 25.8079 48.1601 27.6324C45.9327 31.2777 42.2947 35.5229 37.7706 39.492C33.2465 43.461 28.714 46.3838 25.0508 47.9065C23.2173 48.6686 21.6199 49.0721 20.3596 49.0924C19.0918 49.1128 18.2344 48.7469 17.7744 48.0668C17.3144 47.3868 17.2226 46.3492 17.5634 44.9583C17.9022 43.5757 18.6525 41.9196 19.7673 40.0951C21.9948 36.4498 25.6328 32.2045 30.1569 28.2355C34.681 24.2664 39.2135 21.3436 42.8766 19.821C44.7101 19.0589 46.3075 18.6554 47.5677 18.6351C48.8357 18.6147 49.6931 18.9806 50.1531 19.6607Z" stroke="#023F80"/>
<path d="M27.5492 51.6951C25.7972 51.6951 24.3768 50.0775 24.3768 48.082C24.3768 46.0866 25.7972 44.469 27.5492 44.469C29.3013 44.469 30.7217 46.0866 30.7217 48.082C30.7217 50.0775 29.3013 51.6951 27.5492 51.6951Z" fill="#023F80"/>
<path d="M47.4902 33.6298C45.7381 33.6298 44.3177 32.0122 44.3177 30.0168C44.3177 28.0214 45.7381 26.4037 47.4902 26.4037C49.2423 26.4037 50.6626 28.0214 50.6626 30.0168C50.6626 32.0122 49.2423 33.6298 47.4902 33.6298Z" fill="#023F80"/>
<path d="M27.5492 33.6298C25.7972 33.6298 24.3768 32.0122 24.3768 30.0168C24.3768 28.0214 25.7972 26.4037 27.5492 26.4037C29.3013 26.4037 30.7217 28.0214 30.7217 30.0168C30.7217 32.0122 29.3013 33.6298 27.5492 33.6298Z" fill="#023F80"/>
<path d="M21.491 38.2752H16.3859C16.2939 38.2752 16.2192 38.3602 16.2192 38.465V44.2792C16.2192 44.384 16.2939 44.469 16.3859 44.469H21.491C21.5831 44.469 21.6577 44.384 21.6577 44.2792V38.465C21.6577 38.3602 21.5831 38.2752 21.491 38.2752Z" fill="#023F80"/>
<path d="M40.5259 37.2429H34.5143C34.4223 37.2429 34.3477 37.3278 34.3477 37.4327V42.2145C34.3477 42.3194 34.4223 42.4043 34.5143 42.4043H40.5259C40.6179 42.4043 40.6925 42.3194 40.6925 42.2145V37.4327C40.6925 37.3278 40.6179 37.2429 40.5259 37.2429Z" fill="#023F80"/>
<path d="M40.5257 17.6292H35.4206C35.3285 17.6292 35.2539 17.7142 35.2539 17.819V24.6655C35.2539 24.7703 35.3285 24.8553 35.4206 24.8553H40.5257C40.6178 24.8553 40.6924 24.7703 40.6924 24.6655V17.819C40.6924 17.7142 40.6178 17.6292 40.5257 17.6292Z" fill="#023F80"/>
</svg>
