<svg width="68" height="69" viewBox="0 0 68 69" fill="none" xmlns="http://www.w3.org/2000/svg">
<rect y="0.5" width="68" height="68" rx="12" fill="#F6E9DF"/>
<path d="M50.1526 20.1607C50.6126 20.8407 50.7042 21.8783 50.3636 23.2692C50.0246 24.6518 49.2746 26.3079 48.1596 28.1324C45.9322 31.7777 42.2942 36.023 37.7701 39.992C33.246 43.9611 28.7135 46.8839 25.0503 48.4065C23.2168 49.1686 21.6194 49.5721 20.3591 49.5924C19.0913 49.6128 18.2339 49.2469 17.7739 48.5668C17.3139 47.8868 17.2221 46.8492 17.5629 45.4584C17.9017 44.0757 18.652 42.4196 19.7668 40.5951C21.9943 36.9498 25.6323 32.7045 30.1564 28.7355C34.6805 24.7664 39.213 21.8436 42.8761 20.321C44.7096 19.5589 46.307 19.1554 47.5672 19.1351C48.8352 19.1147 49.6926 19.4806 50.1526 20.1607Z" stroke="#71503D"/>
<path d="M27.5492 52.1951C25.7972 52.1951 24.3768 50.5775 24.3768 48.5821C24.3768 46.5866 25.7972 44.969 27.5492 44.969C29.3013 44.969 30.7217 46.5866 30.7217 48.5821C30.7217 50.5775 29.3013 52.1951 27.5492 52.1951Z" fill="#71503D"/>
<path d="M47.4907 34.1299C45.7386 34.1299 44.3182 32.5122 44.3182 30.5168C44.3182 28.5214 45.7386 26.9038 47.4907 26.9038C49.2427 26.9038 50.6631 28.5214 50.6631 30.5168C50.6631 32.5122 49.2427 34.1299 47.4907 34.1299Z" fill="#71503D"/>
<path d="M27.5492 34.1299C25.7972 34.1299 24.3768 32.5122 24.3768 30.5168C24.3768 28.5214 25.7972 26.9038 27.5492 26.9038C29.3013 26.9038 30.7217 28.5214 30.7217 30.5168C30.7217 32.5122 29.3013 34.1299 27.5492 34.1299Z" fill="#71503D"/>
<path d="M21.4905 38.7752H16.3854C16.2934 38.7752 16.2188 38.8602 16.2188 38.965V44.7792C16.2188 44.884 16.2934 44.969 16.3854 44.969H21.4905C21.5826 44.969 21.6572 44.884 21.6572 44.7792V38.965C21.6572 38.8602 21.5826 38.7752 21.4905 38.7752Z" fill="#71503D"/>
<path d="M40.5259 37.7429H34.5143C34.4223 37.7429 34.3477 37.8279 34.3477 37.9327V42.7145C34.3477 42.8194 34.4223 42.9044 34.5143 42.9044H40.5259C40.6179 42.9044 40.6925 42.8194 40.6925 42.7145V37.9327C40.6925 37.8279 40.6179 37.7429 40.5259 37.7429Z" fill="#71503D"/>
<path d="M40.5257 18.1292H35.4206C35.3285 18.1292 35.2539 18.2142 35.2539 18.319V25.1655C35.2539 25.2703 35.3285 25.3553 35.4206 25.3553H40.5257C40.6178 25.3553 40.6924 25.2703 40.6924 25.1655V18.319C40.6924 18.2142 40.6178 18.1292 40.5257 18.1292Z" fill="#71503D"/>
</svg>
