<svg width="68" height="68" viewBox="0 0 68 68" fill="none" xmlns="http://www.w3.org/2000/svg">
<rect width="68" height="68" rx="12" fill="#2D2D2D"/>
<path d="M50.1526 19.6607C50.6126 20.3407 50.7042 21.3783 50.3636 22.7691C50.0246 24.1518 49.2746 25.8079 48.1596 27.6324C45.9322 31.2777 42.2942 35.523 37.7701 39.492C33.246 43.4611 28.7135 46.3839 25.0503 47.9065C23.2168 48.6686 21.6194 49.0721 20.3591 49.0924C19.0913 49.1128 18.2339 48.7469 17.7739 48.0668C17.3139 47.3868 17.2221 46.3492 17.5629 44.9584C17.9017 43.5757 18.652 41.9196 19.7668 40.0951C21.9943 36.4498 25.6323 32.2045 30.1564 28.2355C34.6805 24.2664 39.213 21.3436 42.8761 19.821C44.7096 19.0589 46.307 18.6554 47.5672 18.6351C48.8352 18.6147 49.6926 18.9806 50.1526 19.6607Z" stroke="white"/>
<path d="M27.5502 51.6951C25.7981 51.6951 24.3778 50.0775 24.3778 48.0821C24.3778 46.0866 25.7981 44.469 27.5502 44.469C29.3023 44.469 30.7227 46.0866 30.7227 48.0821C30.7227 50.0775 29.3023 51.6951 27.5502 51.6951Z" fill="white"/>
<path d="M47.4897 33.6299C45.7376 33.6299 44.3172 32.0122 44.3172 30.0168C44.3172 28.0214 45.7376 26.4038 47.4897 26.4038C49.2418 26.4038 50.6621 28.0214 50.6621 30.0168C50.6621 32.0122 49.2418 33.6299 47.4897 33.6299Z" fill="white"/>
<path d="M27.5502 33.6299C25.7981 33.6299 24.3778 32.0122 24.3778 30.0168C24.3778 28.0214 25.7981 26.4038 27.5502 26.4038C29.3023 26.4038 30.7227 28.0214 30.7227 30.0168C30.7227 32.0122 29.3023 33.6299 27.5502 33.6299Z" fill="white"/>
<path d="M21.4905 38.2752H16.3854C16.2934 38.2752 16.2188 38.3602 16.2188 38.465V44.2792C16.2188 44.384 16.2934 44.469 16.3854 44.469H21.4905C21.5826 44.469 21.6572 44.384 21.6572 44.2792V38.465C21.6572 38.3602 21.5826 38.2752 21.4905 38.2752Z" fill="white"/>
<path d="M40.5259 37.2429H34.5143C34.4223 37.2429 34.3477 37.3279 34.3477 37.4327V42.2145C34.3477 42.3194 34.4223 42.4044 34.5143 42.4044H40.5259C40.6179 42.4044 40.6925 42.3194 40.6925 42.2145V37.4327C40.6925 37.3279 40.6179 37.2429 40.5259 37.2429Z" fill="white"/>
<path d="M40.5257 17.6292H35.4206C35.3285 17.6292 35.2539 17.7142 35.2539 17.819V24.6655C35.2539 24.7703 35.3285 24.8553 35.4206 24.8553H40.5257C40.6178 24.8553 40.6924 24.7703 40.6924 24.6655V17.819C40.6924 17.7142 40.6178 17.6292 40.5257 17.6292Z" fill="white"/>
</svg>
