<svg width="68" height="69" viewBox="0 0 68 69" fill="none" xmlns="http://www.w3.org/2000/svg">
<rect y="0.5" width="68" height="68" rx="12" fill="#FFE0ED"/>
<path d="M43.6 44.1C41.824 44.1 40.4 45.524 40.4 47.3C40.4 48.1487 40.7371 48.9626 41.3373 49.5627C41.9374 50.1629 42.7513 50.5 43.6 50.5C44.4487 50.5 45.2626 50.1629 45.8627 49.5627C46.4629 48.9626 46.8 48.1487 46.8 47.3C46.8 46.4513 46.4629 45.6374 45.8627 45.0373C45.2626 44.4371 44.4487 44.1 43.6 44.1ZM18 18.5V21.7H21.2L26.96 33.844L24.784 37.764C24.544 38.212 24.4 38.74 24.4 39.3C24.4 40.1487 24.7371 40.9626 25.3373 41.5627C25.9374 42.1629 26.7513 42.5 27.6 42.5H46.8V39.3H28.272C28.1659 39.3 28.0642 39.2579 27.9892 39.1828C27.9141 39.1078 27.872 39.0061 27.872 38.9C27.872 38.82 27.888 38.756 27.92 38.708L29.36 36.1H41.28C42.48 36.1 43.536 35.428 44.08 34.452L49.808 24.1C49.92 23.844 50 23.572 50 23.3C50 22.8757 49.8314 22.4687 49.5314 22.1686C49.2313 21.8686 48.8243 21.7 48.4 21.7H24.736L23.232 18.5M27.6 44.1C25.824 44.1 24.4 45.524 24.4 47.3C24.4 48.1487 24.7371 48.9626 25.3373 49.5627C25.9374 50.1629 26.7513 50.5 27.6 50.5C28.4487 50.5 29.2626 50.1629 29.8627 49.5627C30.4629 48.9626 30.8 48.1487 30.8 47.3C30.8 46.4513 30.4629 45.6374 29.8627 45.0373C29.2626 44.4371 28.4487 44.1 27.6 44.1Z" fill="#7B0C42"/>
</svg>
