<svg width="68" height="68" viewBox="0 0 68 68" fill="none" xmlns="http://www.w3.org/2000/svg">
<rect width="68" height="68" rx="12" fill="#2D2D2D"/>
<path d="M43.6 43.6C41.824 43.6 40.4 45.024 40.4 46.8C40.4 47.6487 40.7371 48.4626 41.3373 49.0627C41.9374 49.6629 42.7513 50 43.6 50C44.4487 50 45.2626 49.6629 45.8627 49.0627C46.4629 48.4626 46.8 47.6487 46.8 46.8C46.8 45.9513 46.4629 45.1374 45.8627 44.5373C45.2626 43.9371 44.4487 43.6 43.6 43.6ZM18 18V21.2H21.2L26.96 33.344L24.784 37.264C24.544 37.712 24.4 38.24 24.4 38.8C24.4 39.6487 24.7371 40.4626 25.3373 41.0627C25.9374 41.6629 26.7513 42 27.6 42H46.8V38.8H28.272C28.1659 38.8 28.0642 38.7579 27.9892 38.6828C27.9141 38.6078 27.872 38.5061 27.872 38.4C27.872 38.32 27.888 38.256 27.92 38.208L29.36 35.6H41.28C42.48 35.6 43.536 34.928 44.08 33.952L49.808 23.6C49.92 23.344 50 23.072 50 22.8C50 22.3757 49.8314 21.9687 49.5314 21.6686C49.2313 21.3686 48.8243 21.2 48.4 21.2H24.736L23.232 18M27.6 43.6C25.824 43.6 24.4 45.024 24.4 46.8C24.4 47.6487 24.7371 48.4626 25.3373 49.0627C25.9374 49.6629 26.7513 50 27.6 50C28.4487 50 29.2626 49.6629 29.8627 49.0627C30.4629 48.4626 30.8 47.6487 30.8 46.8C30.8 45.9513 30.4629 45.1374 29.8627 44.5373C29.2626 43.9371 28.4487 43.6 27.6 43.6Z" fill="white"/>
</svg>
