<svg width="68" height="68" viewBox="0 0 68 68" fill="none" xmlns="http://www.w3.org/2000/svg">
<rect width="68" height="68" rx="12" fill="#D7EAFF"/>
<path fill-rule="evenodd" clip-rule="evenodd" d="M45.6614 23.3945C45.8312 24.6757 45.7227 26.1381 45.3191 27.7286C44.4547 31.1355 42.2675 34.9409 38.9199 38.2885C35.5723 41.6361 31.7668 43.8233 28.3599 44.6878C26.2665 45.2189 24.3951 45.2389 22.8665 44.7861C22.6262 43.1515 22.6651 40.8479 23.3158 38.2913C24.4184 35.4344 26.3685 32.4228 29.0798 29.7115C32.4274 26.3639 36.2328 24.1767 39.6398 23.3123C41.981 22.7182 44.0446 22.7635 45.6614 23.3945ZM20.0201 30.3287C17.7744 34.4092 17.0468 38.5135 18.1165 41.5408C18.6602 43.2981 19.7598 44.6748 21.4637 45.4202C21.7546 46.7974 22.3635 48.0021 23.3118 48.9504C26.8868 52.5254 34.1077 51.277 40.4715 46.3478C41.9566 45.2377 43.366 43.9264 44.6245 42.4286C50.4463 35.7708 52.1445 27.7694 48.3187 23.9435C47.8035 23.4283 47.2126 23.0133 46.5594 22.695C46.2786 21.2698 45.6625 20.0242 44.6879 19.0497C40.6936 15.0553 32.1479 17.0822 25.3316 23.5367C23.0876 25.5563 21.299 27.9141 20.0201 30.3287Z" fill="#023F80"/>
</svg>
