<svg width="68" height="69" viewBox="0 0 68 69" fill="none" xmlns="http://www.w3.org/2000/svg">
<rect y="0.5" width="68" height="68" rx="12" fill="#F6E9DF"/>
<path fill-rule="evenodd" clip-rule="evenodd" d="M45.6619 23.8945C45.8316 25.1757 45.7231 26.6381 45.3196 28.2286C44.4552 31.6355 42.268 35.4409 38.9204 38.7885C35.5728 42.1361 31.7673 44.3233 28.3604 45.1878C26.267 45.7189 24.3956 45.7389 22.867 45.2861C22.6267 43.6515 22.6655 41.3479 23.3163 38.7913C24.4189 35.9344 26.369 32.9228 29.0803 30.2115C32.4279 26.8639 36.2333 24.6767 39.6402 23.8123C41.9815 23.2182 44.045 23.2635 45.6619 23.8945ZM20.0205 30.8287C17.7749 34.9092 17.0472 39.0135 18.117 42.0408C18.6607 43.7981 19.7603 45.1748 21.4642 45.9202C21.7551 47.2974 22.364 48.5021 23.3122 49.4504C26.8872 53.0254 34.1082 51.777 40.4719 46.8478C41.9571 45.7377 43.3664 44.4264 44.625 42.9286C50.4468 36.2708 52.145 28.2694 48.3191 24.4435C47.804 23.9283 47.2131 23.5133 46.5599 23.195C46.2791 21.7698 45.663 20.5242 44.6884 19.5497C40.6941 15.5553 32.1484 17.5822 25.3321 24.0367C23.0881 26.0563 21.2995 28.4141 20.0205 30.8287Z" fill="#71503D"/>
</svg>
