<svg width="68" height="69" viewBox="0 0 68 69" fill="none" xmlns="http://www.w3.org/2000/svg">
<rect y="0.5" width="68" height="68" rx="12" fill="#FFE0ED"/>
<path fill-rule="evenodd" clip-rule="evenodd" d="M45.6609 23.8945C45.8307 25.1757 45.7222 26.6381 45.3186 28.2286C44.4542 31.6355 42.267 35.4409 38.9194 38.7885C35.5718 42.1361 31.7663 44.3233 28.3594 45.1878C26.266 45.7189 24.3946 45.7389 22.866 45.2861C22.6257 43.6515 22.6646 41.3479 23.3153 38.7913C24.4179 35.9344 26.368 32.9228 29.0793 30.2115C32.4269 26.8639 36.2324 24.6767 39.6393 23.8123C41.9805 23.2182 44.0441 23.2635 45.6609 23.8945ZM20.0196 30.8287C17.7739 34.9092 17.0463 39.0135 18.116 42.0408C18.6597 43.7981 19.7593 45.1748 21.4632 45.9202C21.7541 47.2974 22.363 48.5021 23.3113 49.4504C26.8863 53.0254 34.1072 51.777 40.471 46.8478C41.9561 45.7377 43.3655 44.4264 44.624 42.9286C50.4459 36.2708 52.144 28.2694 48.3182 24.4435C47.803 23.9283 47.2121 23.5133 46.5589 23.195C46.2781 21.7698 45.662 20.5242 44.6874 19.5497C40.6931 15.5553 32.1474 17.5822 25.3311 24.0367C23.0872 26.0563 21.2985 28.4141 20.0196 30.8287Z" fill="#7B0C42"/>
</svg>
