<svg width="68" height="68" viewBox="0 0 68 68" fill="none" xmlns="http://www.w3.org/2000/svg">
<rect width="68" height="68" rx="12" fill="#2D2D2D"/>
<path fill-rule="evenodd" clip-rule="evenodd" d="M45.6609 23.3945C45.8307 24.6757 45.7222 26.1381 45.3186 27.7286C44.4542 31.1355 42.267 34.9409 38.9194 38.2885C35.5718 41.6361 31.7663 43.8233 28.3594 44.6878C26.266 45.2189 24.3946 45.2389 22.866 44.7861C22.6257 43.1515 22.6646 40.8479 23.3153 38.2913C24.4179 35.4344 26.368 32.4228 29.0793 29.7115C32.4269 26.3639 36.2324 24.1767 39.6393 23.3123C41.9805 22.7182 44.0441 22.7635 45.6609 23.3945ZM20.0196 30.3287C17.7739 34.4092 17.0463 38.5135 18.116 41.5408C18.6597 43.2981 19.7593 44.6748 21.4632 45.4202C21.7541 46.7974 22.363 48.0021 23.3113 48.9504C26.8863 52.5254 34.1072 51.277 40.471 46.3478C41.9561 45.2377 43.3655 43.9264 44.624 42.4286C50.4458 35.7708 52.144 27.7694 48.3182 23.9435C47.803 23.4283 47.2121 23.0133 46.5589 22.695C46.2781 21.2698 45.662 20.0242 44.6874 19.0497C40.6931 15.0553 32.1474 17.0822 25.3311 23.5367C23.0872 25.5563 21.2985 27.9141 20.0196 30.3287Z" fill="white"/>
</svg>
