<svg width="68" height="69" viewBox="0 0 68 69" fill="none" xmlns="http://www.w3.org/2000/svg">
<rect y="0.5" width="68" height="68" rx="12" fill="#FFE0ED"/>
<path d="M34 30.5886L39.8613 28.2472L25.3484 22.442L20.3443 24.4429C20.0918 24.5434 19.8547 24.6789 19.6399 24.8454L34 30.5886ZM18.5873 26.5115C18.5421 26.7167 18.5194 26.9263 18.5195 27.1365V41.932C18.5194 42.5122 18.6932 43.0791 19.0185 43.5596C19.3438 44.0401 19.8056 44.4121 20.3443 44.6275L31.4844 49.084C31.9888 49.2852 32.5049 49.4232 33.0325 49.4981V32.2876L18.5873 26.5115ZM34.9676 49.5C35.4981 49.4237 36.0178 49.2847 36.5156 49.0859L47.6557 44.6294C48.1948 44.4139 48.6568 44.0416 48.9821 43.5607C49.3074 43.0799 49.481 42.5125 49.4805 41.932V27.1365C49.4805 26.9223 49.4579 26.7134 49.4128 26.5095L34.9676 32.2876V49.5ZM48.3601 24.8473L42.4659 27.2062L27.953 21.401L31.4844 19.9845C33.0993 19.3385 34.9008 19.3385 36.5156 19.9845L47.6557 24.441C47.9082 24.5415 48.1453 24.677 48.3601 24.8434" fill="#7B0C42"/>
</svg>
