<svg width="68" height="68" viewBox="0 0 68 68" fill="none" xmlns="http://www.w3.org/2000/svg">
<rect width="68" height="68" rx="12" fill="#D7EAFF"/>
<path d="M34 30.0886L39.8613 27.7472L25.3484 21.942L20.3443 23.9429C20.0918 24.0434 19.8547 24.1789 19.6399 24.3454L34 30.0886ZM18.5873 26.0115C18.5421 26.2167 18.5194 26.4263 18.5195 26.6365V41.432C18.5194 42.0122 18.6932 42.5791 19.0185 43.0596C19.3438 43.5401 19.8056 43.9121 20.3443 44.1275L31.4844 48.584C31.9888 48.7852 32.5049 48.9232 33.0325 48.9981V31.7876L18.5873 26.0115ZM34.9676 49C35.4981 48.9237 36.0178 48.7847 36.5156 48.5859L47.6557 44.1295C48.1948 43.9139 48.6568 43.5416 48.9821 43.0607C49.3074 42.5799 49.481 42.0125 49.4805 41.432V26.6365C49.4805 26.4223 49.4579 26.2134 49.4128 26.0095L34.9676 31.7876V49ZM48.3601 24.3473L42.4659 26.7062L27.953 20.901L31.4844 19.4845C33.0993 18.8385 34.9008 18.8385 36.5156 19.4845L47.6557 23.941C47.9082 24.0415 48.1453 24.177 48.3601 24.3434" fill="#023F80"/>
</svg>
