<svg width="28" height="24" viewBox="0 0 28 24" fill="none" xmlns="http://www.w3.org/2000/svg">
<path d="M23.6344 4.03076C21.0839 1.49545 17.6479 0.0506016 14.052 0.00130403C10.4561 -0.0479936 6.98175 1.30212 4.36267 3.76655C1.74359 6.23098 0.184778 9.61681 0.0153977 13.2091C-0.153982 16.8013 1.07933 20.3188 3.4549 23.0187L3.4653 23.0303C3.48436 23.0505 3.50227 23.0713 3.52306 23.0909C3.5658 23.1395 3.61432 23.1943 3.6715 23.2515C3.89574 23.4899 4.16678 23.6794 4.46763 23.8081C4.76848 23.9369 5.09268 24.0022 5.41993 23.9999C5.74718 23.9977 6.07044 23.9279 6.36947 23.7949C6.6685 23.6619 6.93687 23.4687 7.15778 23.2273C8.00778 22.3035 9.04019 21.566 10.1897 21.0616C11.3393 20.5572 12.581 20.2968 13.8364 20.2968C15.0917 20.2968 16.3334 20.5572 17.483 21.0616C18.6325 21.566 19.6649 22.3035 20.5149 23.2273C20.7375 23.47 21.008 23.6638 21.3094 23.7966C21.6107 23.9293 21.9364 23.998 22.2657 23.9983C22.595 23.9986 22.9208 23.9306 23.2224 23.7985C23.524 23.6663 23.7949 23.473 24.018 23.2307L24.2034 23.0286L24.2138 23.017C26.5544 20.3739 27.798 16.9371 27.6907 13.4082C27.5834 9.87928 26.1332 6.52439 23.6362 4.02845L23.6344 4.03076ZM12.9088 4.5939C12.9088 4.3488 13.0061 4.11375 13.1794 3.94044C13.3527 3.76713 13.5878 3.66977 13.8329 3.66977C14.078 3.66977 14.313 3.76713 14.4863 3.94044C14.6597 4.11375 14.757 4.3488 14.757 4.5939V6.44216C14.757 6.68725 14.6597 6.92231 14.4863 7.09562C14.313 7.26893 14.078 7.36629 13.8329 7.36629C13.5878 7.36629 13.3527 7.26893 13.1794 7.09562C13.0061 6.92231 12.9088 6.68725 12.9088 6.44216V4.5939ZM6.43984 14.7593H4.59158C4.34649 14.7593 4.11143 14.662 3.93813 14.4887C3.76482 14.3154 3.66745 14.0803 3.66745 13.8352C3.66745 13.5901 3.76482 13.355 3.93813 13.1817C4.11143 13.0084 4.34649 12.9111 4.59158 12.9111H6.43984C6.68494 12.9111 6.92 13.0084 7.0933 13.1817C7.26661 13.355 7.36398 13.5901 7.36398 13.8352C7.36398 14.0803 7.26661 14.3154 7.0933 14.4887C6.92 14.662 6.68494 14.7593 6.43984 14.7593ZM9.25844 9.26076C9.08515 9.43393 8.85019 9.53121 8.6052 9.53121C8.36021 9.53121 8.12524 9.43393 7.95195 9.26076L6.64489 7.95427C6.47156 7.78094 6.37418 7.54586 6.37418 7.30073C6.37418 7.05561 6.47156 6.82053 6.64489 6.6472C6.81821 6.47387 7.0533 6.3765 7.29842 6.3765C7.54354 6.3765 7.77862 6.47387 7.95195 6.6472L9.25844 7.95427C9.43162 8.12756 9.5289 8.36252 9.5289 8.60751C9.5289 8.8525 9.43162 9.08746 9.25844 9.26076ZM17.8817 10.595L15.1382 14.9557C15.026 15.1113 14.8895 15.2478 14.7339 15.36C14.3584 15.622 13.8947 15.7253 13.4434 15.6475C12.9922 15.5697 12.5899 15.3171 12.3237 14.9445C12.0576 14.5719 11.9491 14.1094 12.0219 13.6573C12.0946 13.2053 12.3428 12.8001 12.7124 12.5299L17.0731 9.78635C17.1722 9.71726 17.2902 9.68021 17.411 9.68021C17.5318 9.68021 17.6498 9.71726 17.7489 9.78635C17.8734 9.87624 17.9572 10.0117 17.9821 10.1633C18.007 10.3148 17.9709 10.47 17.8817 10.595ZM19.7138 9.26076C19.5391 9.42675 19.3065 9.51792 19.0655 9.51484C18.8245 9.51175 18.5943 9.41465 18.4238 9.24424C18.2534 9.07383 18.1563 8.84359 18.1533 8.60261C18.1502 8.36163 18.2413 8.12898 18.4073 7.95427L19.7138 6.6472C19.8871 6.47387 20.1222 6.3765 20.3674 6.3765C20.6125 6.3765 20.8476 6.47387 21.0209 6.6472C21.1942 6.82053 21.2916 7.05561 21.2916 7.30073C21.2916 7.54586 21.1942 7.78094 21.0209 7.95427L19.7138 9.26076ZM23.0742 14.7593H21.2259C20.9808 14.7593 20.7458 14.662 20.5725 14.4887C20.3992 14.3154 20.3018 14.0803 20.3018 13.8352C20.3018 13.5901 20.3992 13.355 20.5725 13.1817C20.7458 13.0084 20.9808 12.9111 21.2259 12.9111H23.0742C23.3193 12.9111 23.5543 13.0084 23.7276 13.1817C23.901 13.355 23.9983 13.5901 23.9983 13.8352C23.9983 14.0803 23.901 14.3154 23.7276 14.4887C23.5543 14.662 23.3193 14.7593 23.0742 14.7593Z" fill="#D7EAFF"/>
</svg>
