<svg width="14" height="14" viewBox="0 0 14 14" fill="none" xmlns="http://www.w3.org/2000/svg">
<path d="M0.205128 12.8044C0.140095 12.8695 0.0885086 12.9467 0.0533123 13.0316C0.018116 13.1166 0 13.2077 0 13.2996C0 13.3916 0.018116 13.4827 0.0533123 13.5677C0.0885086 13.6526 0.140095 13.7298 0.205128 13.7949C0.270162 13.8599 0.347368 13.9115 0.432339 13.9467C0.517309 13.9819 0.60838 14 0.700352 14C0.792323 14 0.883393 13.9819 0.968364 13.9467C1.05333 13.9115 1.13054 13.8599 1.19557 13.7949L7 7.98957L12.8044 13.7949C12.9358 13.9262 13.1139 14 13.2996 14C13.4854 14 13.6635 13.9262 13.7949 13.7949C13.9262 13.6635 14 13.4854 14 13.2996C14 13.1139 13.9262 12.9358 13.7949 12.8044L7.98957 7L13.7949 1.19557C13.9262 1.06423 14 0.886095 14 0.70035C14 0.514606 13.9262 0.336469 13.7949 0.205128C13.6635 0.0737866 13.4854 1.3839e-09 13.2996 0C13.1139 -1.3839e-09 12.9358 0.0737866 12.8044 0.205128L7 6.01043L1.19557 0.205128C1.06423 0.0737866 0.886096 -3.66147e-09 0.700352 0C0.514607 3.66147e-09 0.33647 0.0737866 0.205128 0.205128C0.0737867 0.336469 0 0.514606 0 0.70035C0 0.886095 0.0737867 1.06423 0.205128 1.19557L6.01043 7L0.205128 12.8044Z" fill="#6C6C6C"/>
</svg>
