<svg width="16" height="18" viewBox="0 0 16 18" fill="none" xmlns="http://www.w3.org/2000/svg">
<path d="M10.9918 1.35785L11.2623 3.23077H14.9232C15.1068 3.23077 15.2829 3.30371 15.4128 3.43354C15.5426 3.56337 15.6155 3.73947 15.6155 3.92308C15.6155 4.10669 15.5426 4.28278 15.4128 4.41261C15.2829 4.54245 15.1068 4.61538 14.9232 4.61538H14.2134L13.4075 14.0169C13.3586 14.5892 13.3189 15.06 13.2552 15.4403C13.1906 15.8363 13.0918 16.1908 12.8989 16.5194C12.596 17.0355 12.1456 17.4492 11.6057 17.7074C11.2623 17.8708 10.9005 17.9382 10.4998 17.9695C10.1149 18 9.64323 18 9.06907 18H6.93123C6.35707 18 5.88538 18 5.50046 17.9695C5.09984 17.9382 4.738 17.8708 4.39461 17.7074C3.85469 17.4492 3.40431 17.0355 3.10138 16.5194C2.90753 16.1908 2.81061 15.8363 2.74507 15.4403C2.68138 15.0591 2.64169 14.5892 2.59277 14.0169L1.78692 4.61538H1.07707C0.893462 4.61538 0.717371 4.54245 0.587538 4.41261C0.457705 4.28278 0.384766 4.10669 0.384766 3.92308C0.384766 3.73947 0.457705 3.56337 0.587538 3.43354C0.717371 3.30371 0.893462 3.23077 1.07707 3.23077H4.738L5.00846 1.35785L5.01861 1.30154C5.18661 0.572308 5.81246 0 6.59707 0H9.40323C10.1878 0 10.8137 0.572308 10.9817 1.30154L10.9918 1.35785ZM6.13646 3.23077H9.86292L9.62661 1.59138C9.5823 1.43723 9.46969 1.38462 9.4023 1.38462H6.598C6.53061 1.38462 6.418 1.43723 6.37369 1.59138L6.13646 3.23077ZM7.30784 7.61538C7.30784 7.43177 7.2349 7.25568 7.10507 7.12585C6.97524 6.99602 6.79915 6.92308 6.61553 6.92308C6.43192 6.92308 6.25583 6.99602 6.126 7.12585C5.99617 7.25568 5.92323 7.43177 5.92323 7.61538V12.2308C5.92323 12.4144 5.99617 12.5905 6.126 12.7203C6.25583 12.8501 6.43192 12.9231 6.61553 12.9231C6.79915 12.9231 6.97524 12.8501 7.10507 12.7203C7.2349 12.5905 7.30784 12.4144 7.30784 12.2308V7.61538ZM10.0771 7.61538C10.0771 7.43177 10.0041 7.25568 9.8743 7.12585C9.74447 6.99602 9.56838 6.92308 9.38477 6.92308C9.20115 6.92308 9.02506 6.99602 8.89523 7.12585C8.7654 7.25568 8.69246 7.43177 8.69246 7.61538V12.2308C8.69246 12.4144 8.7654 12.5905 8.89523 12.7203C9.02506 12.8501 9.20115 12.9231 9.38477 12.9231C9.56838 12.9231 9.74447 12.8501 9.8743 12.7203C10.0041 12.5905 10.0771 12.4144 10.0771 12.2308V7.61538Z" fill="white"/>
</svg>
