<svg width="17" height="16" viewBox="0 0 17 16" fill="none" xmlns="http://www.w3.org/2000/svg">
<path d="M11.06 14L13.3 11.76V13.6H14.1V10.4H10.9V11.2H12.74L10.5 13.44L11.06 14ZM12.5 16C11.3933 16 10.4501 15.6099 9.6704 14.8296C8.89067 14.0493 8.50053 13.1061 8.5 12C8.49947 10.8939 8.8896 9.95067 9.6704 9.1704C10.4512 8.39013 11.3944 8 12.5 8C13.6056 8 14.5491 8.39013 15.3304 9.1704C16.1117 9.95067 16.5016 10.8939 16.5 12C16.4984 13.1061 16.1083 14.0496 15.3296 14.8304C14.5509 15.6112 13.6077 16.0011 12.5 16ZM3.7 4.8H11.7V3.2H3.7V4.8ZM7.44 14.4H2.1C1.66 14.4 1.28347 14.2435 0.9704 13.9304C0.657333 13.6173 0.500533 13.2405 0.5 12.8V1.6C0.5 1.16 0.6568 0.783467 0.9704 0.4704C1.284 0.157333 1.66053 0.000533333 2.1 0H13.3C13.74 0 14.1168 0.1568 14.4304 0.4704C14.744 0.784 14.9005 1.16053 14.9 1.6V6.96C14.5133 6.77333 14.1232 6.63333 13.7296 6.54C13.336 6.44667 12.9261 6.4 12.5 6.4C12.3533 6.4 12.2165 6.4032 12.0896 6.4096C11.9627 6.416 11.8328 6.4328 11.7 6.46V6.4H3.7V8H8.6C8.36 8.22667 8.14347 8.47333 7.9504 8.74C7.75733 9.00667 7.5872 9.29333 7.44 9.6H3.7V11.2H6.96C6.93333 11.3333 6.9168 11.4635 6.9104 11.5904C6.904 11.7173 6.90053 11.8539 6.9 12C6.9 12.44 6.94 12.8501 7.02 13.2304C7.1 13.6107 7.24 14.0005 7.44 14.4Z" fill="#7B0C42"/>
</svg>
