<svg width="18" height="18" viewBox="0 0 18 18" fill="none" xmlns="http://www.w3.org/2000/svg">
<path fill-rule="evenodd" clip-rule="evenodd" d="M11.4141 3.29268C11.4141 2.41941 11.761 1.5819 12.3785 0.964405C12.996 0.346907 13.8335 0 14.7067 0C15.58 0 16.4175 0.346907 17.035 0.964405C17.6525 1.5819 17.9994 2.41941 17.9994 3.29268C17.9994 4.16596 17.6525 5.00346 17.035 5.62096C16.4175 6.23846 15.58 6.58537 14.7067 6.58537C13.8335 6.58537 12.996 6.23846 12.3785 5.62096C11.761 5.00346 11.4141 4.16596 11.4141 3.29268Z" fill="#FF0000"/>
<path fill-rule="evenodd" clip-rule="evenodd" d="M10.7798 0.878052C10.2361 1.76118 10.0062 2.80182 10.127 3.83181C10.2478 4.86179 10.7125 5.82094 11.4458 6.55425C12.1791 7.28755 13.1382 7.75217 14.1682 7.87301C15.1982 7.99385 16.2388 7.76386 17.122 7.2202V12.0732C17.122 13.6451 16.4975 15.1526 15.386 16.2641C14.2745 17.3756 12.767 18 11.1951 18H5.92683C4.35494 18 2.84742 17.3756 1.73593 16.2641C0.624432 15.1526 0 13.6451 0 12.0732V6.80488C0 5.23299 0.624432 3.72548 1.73593 2.61398C2.84742 1.50248 4.35494 0.878052 5.92683 0.878052H10.7798Z" fill="#7B0C42"/>
</svg>
