<svg width="18" height="20" viewBox="0 0 18 20" fill="none" xmlns="http://www.w3.org/2000/svg">
<path d="M4 19C5.65685 19 7 17.6569 7 16C7 14.3431 5.65685 13 4 13C2.34315 13 1 14.3431 1 16C1 17.6569 2.34315 19 4 19Z" stroke="#023F80" stroke-width="2" stroke-linecap="round" stroke-linejoin="round"/>
<path d="M12.001 13L4.00098 1M6.00098 13L9.00098 8.5M14.001 1L11.001 5.5" stroke="#023F80" stroke-width="2" stroke-linecap="round" stroke-linejoin="round"/>
<path d="M14 19C15.6569 19 17 17.6569 17 16C17 14.3431 15.6569 13 14 13C12.3431 13 11 14.3431 11 16C11 17.6569 12.3431 19 14 19Z" stroke="#023F80" stroke-width="2" stroke-linecap="round" stroke-linejoin="round"/>
</svg>
