<svg width="18" height="18" viewBox="0 0 18 18" fill="none" xmlns="http://www.w3.org/2000/svg">
<path d="M1.79442 1.49017C1.63145 1.81432 1.55131 2.2159 1.39104 3.01726L0.852597 5.70947C0.776286 6.07654 0.775695 6.45533 0.85086 6.82264C0.926024 7.18995 1.07536 7.53805 1.28973 7.84564C1.5041 8.15323 1.77899 8.41383 2.09758 8.61149C2.41616 8.80915 2.77173 8.93971 3.14253 8.99518C3.51332 9.05065 3.89154 9.02986 4.25402 8.93408C4.6165 8.8383 4.95562 8.66955 5.25062 8.43816C5.54562 8.20677 5.79029 7.91761 5.96965 7.58838C6.14901 7.25915 6.25929 6.89677 6.29374 6.52344L6.35677 5.90216C6.32265 6.29729 6.37133 6.69519 6.49969 7.07045C6.62806 7.4457 6.83329 7.79006 7.10227 8.0815C7.37126 8.37295 7.69808 8.60508 8.06186 8.76307C8.42563 8.92106 8.81837 9.00142 9.21496 8.99903C9.61156 8.99664 10.0033 8.91155 10.3651 8.74919C10.727 8.58683 11.051 8.35078 11.3164 8.05611C11.5819 7.76145 11.783 7.41465 11.9068 7.03787C12.0306 6.6611 12.0745 6.26263 12.0356 5.86794L12.1014 6.52344C12.1358 6.89677 12.2461 7.25915 12.4255 7.58838C12.6048 7.91761 12.8495 8.20677 13.1445 8.43816C13.4395 8.66955 13.7786 8.8383 14.1411 8.93408C14.5036 9.02986 14.8818 9.05065 15.2526 8.99518C15.6234 8.93971 15.9789 8.80915 16.2975 8.61149C16.6161 8.41383 16.891 8.15323 17.1054 7.84564C17.3197 7.53805 17.4691 7.18995 17.5442 6.82264C17.6194 6.45533 17.6188 6.07654 17.5425 5.70947L17.0041 3.01726C16.8438 2.2159 16.7637 1.81522 16.6007 1.49017C16.4309 1.15165 16.1918 0.852627 15.8989 0.612501C15.606 0.372376 15.266 0.196519 14.9007 0.0963435C14.5496 1.00628e-07 14.1408 0 13.3232 0H5.0719C4.25433 0 3.84554 1.00628e-07 3.49439 0.0963435C3.12915 0.196519 2.78906 0.372376 2.4962 0.612501C2.20333 0.852627 1.96423 1.15165 1.79442 1.49017ZM14.8422 10.3547C15.5457 10.3564 16.2377 10.1762 16.851 9.83152V10.8049C16.851 14.2003 16.851 15.8985 15.7957 16.9528C14.9466 17.8028 13.6816 17.9676 11.4486 18V14.8567C11.4486 14.0148 11.4486 13.5943 11.2676 13.281C11.149 13.0757 10.9786 12.9052 10.7733 12.7867C10.4599 12.6057 10.0394 12.6057 9.19755 12.6057C8.35567 12.6057 7.93518 12.6057 7.62184 12.7867C7.41654 12.9052 7.24606 13.0757 7.12752 13.281C6.94654 13.5943 6.94654 14.0148 6.94654 14.8567V18C4.71353 17.9676 3.44846 17.8019 2.59938 16.9528C1.54411 15.8985 1.54411 14.2003 1.54411 10.8049V9.83152C2.15766 10.1764 2.85 10.3566 3.55381 10.3547C4.59436 10.3553 5.59616 9.96 6.35587 9.24896C7.12997 9.96238 8.14485 10.3573 9.19755 10.3547C10.2503 10.3573 11.2651 9.96238 12.0392 9.24896C12.7989 9.96 13.8016 10.3553 14.8422 10.3547Z" fill="#7B0C42"/>
</svg>
