<svg width="17" height="18" viewBox="0 0 17 18" fill="none" xmlns="http://www.w3.org/2000/svg">
<path d="M0.999499 1.49017C0.836525 1.81432 0.756389 2.2159 0.596117 3.01726L0.0576748 5.70947C-0.0186355 6.07654 -0.0192265 6.45533 0.0559379 6.82264C0.131102 7.18995 0.28044 7.53805 0.49481 7.84564C0.70918 8.15323 0.984072 8.41383 1.30266 8.61149C1.62124 8.80915 1.97681 8.93971 2.34761 8.99518C2.7184 9.05065 3.09662 9.02986 3.4591 8.93408C3.82158 8.83831 4.1607 8.66956 4.4557 8.43816C4.75069 8.20677 4.99536 7.91761 5.17473 7.58838C5.35409 7.25915 5.46437 6.89677 5.49882 6.52344L5.56185 5.90216C5.52773 6.29729 5.5764 6.69519 5.70477 7.07045C5.83313 7.4457 6.03837 7.79006 6.30735 8.0815C6.57633 8.37295 6.90316 8.60508 7.26693 8.76307C7.63071 8.92106 8.02345 9.00142 8.42004 8.99903C8.81664 8.99664 9.20837 8.91155 9.57022 8.74919C9.93207 8.58683 10.2561 8.35078 10.5215 8.05611C10.787 7.76145 10.988 7.41465 11.1119 7.03787C11.2357 6.6611 11.2796 6.26263 11.2407 5.86794L11.3064 6.52344C11.3409 6.89677 11.4512 7.25915 11.6305 7.58838C11.8099 7.91761 12.0546 8.20677 12.3496 8.43816C12.6446 8.66956 12.9837 8.83831 13.3462 8.93408C13.7086 9.02986 14.0869 9.05065 14.4577 8.99518C14.8284 8.93971 15.184 8.80915 15.5026 8.61149C15.8212 8.41383 16.0961 8.15323 16.3104 7.84564C16.5248 7.53805 16.6742 7.18995 16.7493 6.82264C16.8245 6.45533 16.8239 6.07654 16.7476 5.70947L16.2091 3.01726C16.0489 2.2159 15.9687 1.81522 15.8058 1.49017C15.6359 1.15165 15.3968 0.852627 15.104 0.612501C14.8111 0.372376 14.471 0.196519 14.1058 0.0963435C13.7546 9.68575e-08 13.3459 0 12.5283 0H4.27697C3.45941 0 3.05062 9.68575e-08 2.69946 0.0963435C2.33423 0.196519 1.99414 0.372376 1.70128 0.612501C1.40841 0.852627 1.16931 1.15165 0.999499 1.49017ZM14.0473 10.3547C14.7508 10.3564 15.4428 10.1762 16.0561 9.83152V10.8049C16.0561 14.2003 16.0561 15.8985 15.0008 16.9528C14.1517 17.8028 12.8866 17.9676 10.6536 18V14.8567C10.6536 14.0148 10.6536 13.5943 10.4727 13.281C10.3541 13.0757 10.1836 12.9052 9.97834 12.7867C9.665 12.6057 9.24451 12.6057 8.40263 12.6057C7.56075 12.6057 7.14026 12.6057 6.82692 12.7867C6.62162 12.9052 6.45113 13.0757 6.3326 13.281C6.15162 13.5943 6.15162 14.0148 6.15162 14.8567V18C3.91861 17.9676 2.65354 17.8019 1.80446 16.9528C0.749186 15.8985 0.749186 14.2003 0.749186 10.8049V9.83152C1.36273 10.1764 2.05507 10.3566 2.75889 10.3547C3.79943 10.3553 4.80124 9.96 5.56095 9.24896C6.33505 9.96238 7.34993 10.3573 8.40263 10.3547C9.45533 10.3573 10.4702 9.96238 11.2443 9.24896C12.004 9.96 13.0067 10.3553 14.0473 10.3547Z" fill="#023F80"/>
</svg>
